<?xml version="1.0" standalone="no"?>
<!DOCTYPE svg PUBLIC "-//W3C//DTD SVG 20010904//EN"
 "http://www.w3.org/TR/2001/REC-SVG-20010904/DTD/svg10.dtd">
<svg version="1.0" xmlns="http://www.w3.org/2000/svg"
 width="400.000000pt" height="400.000000pt" viewBox="0 0 400.000000 400.000000"
 preserveAspectRatio="xMidYMid meet">

<g transform="translate(0.000000,400.000000) scale(0.100000,-0.100000)"
fill="#000000" stroke="none">
<path d="M1655 3035 c-153 -54 -263 -169 -314 -327 -10 -29 -20 -39 -49 -49
-116 -37 -203 -102 -268 -201 -74 -111 -84 -165 -84 -453 0 -133 4 -265 10
-294 29 -153 164 -305 320 -360 61 -21 63 -24 78 -77 13 -47 82 -157 121 -195
36 -34 113 -86 148 -100 86 -34 131 -39 383 -39 279 0 310 4 417 58 110 56
186 151 251 313 7 18 20 28 43 33 53 10 159 75 210 129 58 61 112 161 129 237
8 38 11 139 8 320 -4 301 -7 315 -85 433 -53 80 -128 139 -223 176 -82 33 -90
38 -90 60 0 37 -73 164 -124 214 -57 58 -152 112 -230 133 -37 10 -123 14
-316 14 -256 0 -267 -1 -335 -25z m645 -202 c50 -24 103 -72 132 -118 24 -41
23 -52 -9 -60 -47 -11 -124 -54 -175 -96 -35 -30 -77 -88 -154 -212 -59 -95
-112 -178 -120 -186 -11 -12 -40 3 -191 97 -117 73 -186 123 -200 144 -109
161 -40 375 140 437 57 19 79 21 297 18 216 -3 239 -5 280 -24z m399 -392 c57
-30 97 -73 129 -140 25 -54 25 -57 24 -302 0 -227 -2 -251 -21 -294 -11 -26
-32 -61 -47 -78 -25 -30 -90 -77 -107 -77 -4 0 -23 34 -42 75 -50 110 -108
165 -306 291 -93 59 -172 111 -175 116 -8 12 189 328 229 366 76 73 219 93
316 43z m-1359 -4 c0 -7 15 -44 34 -83 49 -104 114 -162 304 -277 89 -55 165
-103 168 -108 8 -13 -188 -328 -228 -365 -58 -56 -94 -69 -188 -69 -75 0 -91
3 -138 29 -56 32 -92 72 -122 138 -18 39 -20 68 -20 298 0 249 1 256 24 305
29 60 59 95 106 124 40 24 60 27 60 8z m724 -595 c2 -4 76 -52 164 -107 140
-86 164 -105 196 -152 96 -147 37 -340 -129 -418 -34 -16 -73 -19 -263 -23
-257 -5 -320 5 -394 63 -37 29 -88 97 -88 117 0 4 37 25 83 47 129 62 156 92
312 346 37 61 72 116 78 123 11 13 33 16 41 4z"/>
</g>
</svg>
