<?xml version="1.0" encoding="UTF-8"?>
<svg version="1.1" xmlns="http://www.w3.org/2000/svg" width="500" height="500">
<path d="M0 0 C0.94837738 0.00182281 1.89675476 0.00364563 2.87387085 0.00552368 C17.09140987 0.05151283 30.9524374 0.5484258 44.9375 3.3125 C45.80358887 3.47347168 46.66967773 3.63444336 47.56201172 3.80029297 C84.08578259 10.71701945 119.38373713 25.67639294 148.9375 48.3125 C149.83597656 48.99957031 150.73445313 49.68664063 151.66015625 50.39453125 C156.83111769 54.44658295 161.73981029 58.75006251 166.5859375 63.18359375 C168.58209463 64.99074597 170.61826365 66.71607146 172.6875 68.4375 C189.71377025 83.37402682 203.21759229 102.06490138 214.9375 121.3125 C215.48696289 122.21291016 216.03642578 123.11332031 216.60253906 124.04101562 C220.89288123 131.21904283 224.56328608 138.53916991 227.9375 146.1875 C228.45513916 147.36078857 228.97277832 148.53407715 229.50610352 149.74291992 C235.63477186 163.90186033 240.14203862 178.30998326 243.6875 193.3125 C243.96775024 194.48292847 243.96775024 194.48292847 244.25366211 195.67700195 C248.2250436 213.57409957 249.52103817 231.5244337 249.4375 249.8125 C249.43573761 250.85365967 249.43397522 251.89481934 249.43215942 252.9675293 C249.2321467 306.24318195 231.22775513 359.98220704 197.38134766 401.53662109 C196.25089074 402.92704105 195.13340818 404.32801163 194.02099609 405.73291016 C188.37597234 412.78322988 182.33507571 419.31751038 175.9375 425.6875 C175.43583313 426.18829071 174.93416626 426.68908142 174.41729736 427.20504761 C165.82035814 435.75287215 156.91802533 443.41738785 146.9375 450.3125 C146.13666992 450.87727051 145.33583984 451.44204102 144.51074219 452.02392578 C114.8779366 472.85541359 82.90784655 486.33508215 47.4375 493.625 C46.72255371 493.77235596 46.00760742 493.91971191 45.27099609 494.0715332 C30.44293665 496.90978141 15.68928544 497.72299298 0.625 497.6875 C-0.29080841 497.68662384 -1.20661682 497.68574768 -2.150177 497.68484497 C-36.90096157 497.57581373 -69.21983753 490.22560781 -101.0625 476.3125 C-101.86896973 475.96574219 -102.67543945 475.61898438 -103.50634766 475.26171875 C-139.1517836 459.81920842 -172.63811943 433.25807401 -195.75195312 402.07177734 C-197.08047091 400.28837587 -198.43610037 398.52840484 -199.796875 396.76953125 C-224.47779376 364.48777861 -239.84184393 325.29663875 -246.0625 285.3125 C-246.17964355 284.60577148 -246.29678711 283.89904297 -246.41748047 283.17089844 C-256.49409043 220.19582937 -238.33025869 154.08300463 -201.3828125 102.81640625 C-188.01784701 84.55749377 -172.05455298 67.10238221 -154.0625 53.3125 C-153.52995605 52.89822754 -152.99741211 52.48395508 -152.44873047 52.05712891 C-108.78797913 18.23788905 -55.15484331 -0.22003823 0 0 Z M-41.0625 19.3125 C-42.04508789 19.50585938 -43.02767578 19.69921875 -44.04003906 19.8984375 C-86.84769433 28.6573136 -123.18707853 47.96715629 -156.0625 76.3125 C-157.22652344 77.28896484 -157.22652344 77.28896484 -158.4140625 78.28515625 C-162.36320202 81.63201387 -165.82318853 85.15235317 -169.1640625 89.10546875 C-171.30941182 91.59954769 -173.56026087 93.97711134 -175.8125 96.375 C-186.55052786 108.20145126 -195.06473229 121.52951317 -203.0625 135.3125 C-203.43503906 135.95155273 -203.80757812 136.59060547 -204.19140625 137.24902344 C-217.55913461 160.44523843 -225.87924885 186.9476551 -230.0625 213.3125 C-230.17964355 214.04758789 -230.29678711 214.78267578 -230.41748047 215.54003906 C-235.15840231 247.08513267 -232.07159918 279.59668758 -224.0625 310.3125 C-223.87461914 311.05757813 -223.68673828 311.80265625 -223.49316406 312.5703125 C-217.3147517 336.79938057 -205.76349929 361.10230859 -191.0625 381.3125 C-190.36769531 382.27929688 -189.67289063 383.24609375 -188.95703125 384.2421875 C-175.31793192 402.82998658 -159.55848525 420.410434 -140.84619141 434.01171875 C-138.96751601 435.38176837 -137.11559191 436.78411381 -135.26171875 438.1875 C-96.41099615 467.09955559 -48.22870796 481.57373737 -0.0625 481.5 C0.66738129 481.49939575 1.39726257 481.4987915 2.14926147 481.49816895 C20.57262739 481.4568276 37.98053051 479.4349742 55.9375 475.3125 C56.66195313 475.14943359 57.38640625 474.98636719 58.1328125 474.81835938 C94.94623307 466.29421864 128.85604226 446.80038437 156.57421875 421.453125 C158.63779213 419.58397093 160.74264613 417.78926638 162.875 416 C202.93990179 380.92309803 227.9442722 324.77140609 232.7565918 272.33813477 C233.18884235 265.10887548 233.18244688 257.86508644 233.1875 250.625 C233.18817474 249.75634308 233.18884949 248.88768616 233.18954468 247.9927063 C233.17259123 234.23078515 232.56624816 220.85632344 229.9375 207.3125 C229.76589355 206.40870605 229.59428711 205.50491211 229.41748047 204.57373047 C221.21739697 162.60601089 201.92812234 124.24134448 173.09375 92.69140625 C171.14134564 90.53739491 169.25472641 88.34222274 167.375 86.125 C163.86824527 82.11614175 160.00006975 78.74399095 155.9375 75.3125 C154.88132065 74.38450768 153.82675974 73.45467153 152.7734375 72.5234375 C120.51693891 44.15266031 78.74746129 23.90247996 35.9375 18.3125 C34.70531738 18.14097412 33.47313477 17.96944824 32.20361328 17.79272461 C21.71842561 16.39507089 11.38365479 15.94855015 0.8125 16 C0.00768188 16.00215515 -0.79713623 16.0043103 -1.62634277 16.00653076 C-14.95575482 16.06350532 -27.95236176 16.72885262 -41.0625 19.3125 Z " fill="#68CCF2" transform="translate(251.0625,-0.31250000000000006)"/>
<path d="M0 0 C2.29597631 1.73803801 4.52191186 3.53582164 6.734375 5.37890625 C7.51425781 6.0234375 8.29414063 6.66796875 9.09765625 7.33203125 C30.15473303 25.46731268 48.30472277 52.52951859 52.734375 80.37890625 C53.56394598 93.80163675 52.53839098 103.61349258 43.6328125 114.28515625 C30.05341543 129.26161063 9.36859471 134.02809876 -10.265625 135.37890625 C-15.3265367 135.60582511 -20.38896408 135.74875969 -25.453125 135.87890625 C-28.1134135 135.94818966 -30.77346838 136.02191385 -33.43359375 136.09765625 C-34.60172607 136.12794922 -35.7698584 136.15824219 -36.97338867 136.18945312 C-43.08006895 136.40846349 -49.17312138 136.92234955 -55.265625 137.37890625 C-55.26118378 138.28583221 -55.25674255 139.19275818 -55.25216675 140.12716675 C-55.2115862 148.80158076 -55.18139037 157.47596154 -55.16200066 166.15044975 C-55.15169623 170.60685244 -55.13779138 175.06317479 -55.11474609 179.51953125 C-54.60644425 280.6078705 -54.60644425 280.6078705 -85.49609375 314.8515625 C-98.99471468 328.03363286 -117.27589183 335.78694578 -136.015625 335.94140625 C-173.98388602 335.4234016 -208.01309814 314.69202252 -234.265625 288.37890625 C-234.76078613 287.89164062 -235.25594727 287.404375 -235.76611328 286.90234375 C-262.12074906 260.74457599 -284.71239418 219.43945942 -285.640625 181.69140625 C-285.24679395 167.21054156 -280.65104223 151.74143775 -270.578125 140.87890625 C-244.48110362 117.82822978 -206.26736081 114.81989322 -173.1796875 115.12109375 C-170.97293589 115.12925869 -168.76617823 115.13591137 -166.55941772 115.1411438 C-160.83563343 115.15802156 -155.11209876 115.19216608 -149.38842773 115.23120117 C-140.15341172 115.29114788 -130.91826195 115.32419237 -121.68311691 115.35696793 C-118.46720526 115.37093085 -115.25141301 115.39249131 -112.03555298 115.41525269 C-110.08831866 115.42526392 -108.14108358 115.43512941 -106.19384766 115.44482422 C-104.85083084 115.45728683 -104.85083084 115.45728683 -103.48068237 115.47000122 C-101.40878792 115.47757887 -99.33680068 115.43400027 -97.265625 115.37890625 C-96.07214838 114.40299477 -96.07214838 114.40299477 -96.1328125 112.59375 C-96.13539063 111.84222656 -96.13796875 111.09070313 -96.140625 110.31640625 C-96.13804687 109.58292969 -96.13546875 108.84945312 -96.1328125 108.09375 C-96.23117554 105.23725434 -96.23117554 105.23725434 -96.76123047 101.86816406 C-97.39687573 96.85768976 -97.44600628 91.88129681 -97.46875 86.8359375 C-97.47445007 85.83165207 -97.48015015 84.82736664 -97.48602295 83.79264832 C-97.49543482 81.66882363 -97.50199169 79.54498459 -97.50585938 77.42114258 C-97.51545999 74.24597908 -97.54647628 71.07149346 -97.578125 67.89648438 C-97.71521939 41.58782754 -95.30362363 16.670987 -76.5625 -3.359375 C-55.18479045 -24.40987471 -22.19663174 -15.88207271 0 0 Z M-49.9609375 6.25390625 C-60.0606095 28.32969204 -59.59338459 52.49768809 -59.47143555 76.36010742 C-59.45295821 80.10016599 -59.45092827 83.83997821 -59.45117188 87.58007812 C-59.4462621 89.99609587 -59.44043616 92.41211196 -59.43359375 94.828125 C-59.43248093 95.9272673 -59.4313681 97.02640961 -59.43022156 98.15885925 C-59.47813743 108.3217726 -59.47813743 108.3217726 -58.265625 118.37890625 C-43.33601297 125.84371227 -11.77704744 120.65918409 3.859375 116.41015625 C14.83766774 112.47229038 25.95484221 106.95688361 32.234375 96.69140625 C38.04198512 83.86626723 34.81780355 66.64895746 30.515625 53.71484375 C21.61360445 31.41033671 3.43197721 12.31914637 -18.3828125 2.41796875 C-29.84353271 -2.23075712 -42.77830236 -5.92678375 -49.9609375 6.25390625 Z M-226.265625 137.37890625 C-227.379375 137.75015625 -228.493125 138.12140625 -229.640625 138.50390625 C-237.20149289 141.21440606 -243.72479293 144.72692833 -250.265625 149.37890625 C-251.15894531 150.01119141 -251.15894531 150.01119141 -252.0703125 150.65625 C-261.10768043 157.60987248 -266.33614773 168.3165699 -268.265625 179.37890625 C-270.62960074 207.6636686 -263.85221876 232.40633667 -249.265625 256.37890625 C-248.7396875 257.25417969 -248.21375 258.12945312 -247.671875 259.03125 C-236.14574283 277.24894224 -217.31185293 296.12526644 -198.265625 306.37890625 C-197.66621094 306.70487793 -197.06679687 307.03084961 -196.44921875 307.36669922 C-186.84548028 312.46677371 -176.78526839 315.73052789 -166.265625 318.37890625 C-164.80189453 318.75015625 -164.80189453 318.75015625 -163.30859375 319.12890625 C-145.48793182 322.97624556 -126.76578183 320.07997798 -111.265625 310.37890625 C-95.52636208 299.15170659 -85.11639438 284.84756965 -81.578125 265.6484375 C-75.95509745 227.79935815 -82.12853221 185.61309972 -89.390625 148.25390625 C-89.60984619 147.11091064 -89.60984619 147.11091064 -89.83349609 145.94482422 C-91.02005652 140.35179187 -92.44373997 136.59349627 -97.265625 133.37890625 C-102.14811873 131.97687012 -107.31434445 132.02909867 -112.359375 131.828125 C-113.39759399 131.78628586 -114.43581299 131.74444672 -115.50549316 131.70133972 C-129.36757271 131.20046331 -143.23509507 131.19169813 -157.10449219 131.19360352 C-161.00787345 131.19370595 -164.91107619 131.17991904 -168.81441498 131.16283131 C-171.88607564 131.15159968 -174.9576941 131.14968749 -178.02937317 131.15021324 C-179.46752044 131.14905507 -180.90566962 131.14475976 -182.34379578 131.13688087 C-197.50178574 131.06140652 -211.81240328 132.56116568 -226.265625 137.37890625 Z " fill="#64CBF2" transform="translate(361.265625,88.62109375)"/>
<path d="M0 0 C2.66975923 3.34753093 4.73725814 6.95738193 6.8125 10.6875 C23.97964282 40.9893667 51.18127066 66.9137123 85 77 C84.01 77.66 83.02 78.32 82 79 C80.31923769 78.36971413 78.65204456 77.70211894 77 77 C75.515 77.495 75.515 77.495 74 78 C73.26676204 80.01508358 73.26676204 80.01508358 73 82 C75.90600261 83.25664978 77.79604584 84 81 84 C81 84.66 81 85.32 81 86 C85.48133574 86.72256829 85.48133574 86.72256829 90 87 C90.33 88.65 90.66 90.3 91 92 C76.00122246 87.63671926 62.58000917 80.1272204 50 71 C49.14946045 70.38487549 49.14946045 70.38487549 48.28173828 69.75732422 C40.01992506 63.7232542 32.30426885 57.16204051 25 50 C24.51176758 49.52256348 24.02353516 49.04512695 23.52050781 48.55322266 C11.28606057 36.40345683 0.70454533 21.4371072 -7 6 C-7 5.34 -7 4.68 -7 4 C-5.35 3.67 -3.7 3.34 -2 3 C-2.33 4.98 -2.66 6.96 -3 9 C-2.01 8.34 -1.02 7.68 0 7 C0.25015873 3.41642759 0.25015873 3.41642759 0 0 Z " fill="#7BD0EE" transform="translate(102,327)"/>
<path d="M0 0 C9.51478954 2.50389198 17.55503996 8.7980023 25 15 C26.16982422 15.96679688 26.16982422 15.96679688 27.36328125 16.953125 C39.88797845 27.73994556 49.73122806 40.74125154 58 55 C58 55.66 58 56.32 58 57 C53.32307692 55.52307692 53.32307692 55.52307692 51.6875 52.875 C51.460625 52.25625 51.23375 51.6375 51 51 C50.34 51 49.68 51 49 51 C48.34 53.64 47.68 56.28 47 59 C44.74315308 56.08772149 42.79222021 53.08192638 40.875 49.9375 C28.54749257 30.55834948 11.75920548 14.87860865 -11.125 9.75 C-19.58374662 8.06247568 -19.58374662 8.06247568 -27.375 10.625 C-29.21248174 13.31055023 -30.65422954 16.03930499 -32 19 C-32.33 19 -32.66 19 -33 19 C-32.91266424 17.39482903 -32.80447776 15.79078338 -32.6875 14.1875 C-32.62949219 13.29417969 -32.57148438 12.40085937 -32.51171875 11.48046875 C-31.93686419 8.69396 -31.1793144 7.75864246 -29 6 C-29 6.66 -29 7.32 -29 8 C-28.01 7.34 -27.02 6.68 -26 6 C-22.6796875 5.76953125 -22.6796875 5.76953125 -18.875 5.8125 C-16.98394531 5.82216797 -16.98394531 5.82216797 -15.0546875 5.83203125 C-12 6 -12 6 -11 7 C-8.0842309 7.41702122 -8.0842309 7.41702122 -5 7 C-3.22590192 5.07977297 -3.22590192 5.07977297 -2 3 C-1.34 3 -0.68 3 0 3 C0 2.01 0 1.02 0 0 Z " fill="#6ECDF1" transform="translate(343,79)"/>
<path d="M0 0 C0.33 0 0.66 0 1 0 C1.04696474 9.59049791 1.08218691 19.18095444 1.10362434 28.7715435 C1.11392877 33.22794619 1.12783362 37.68426854 1.15087891 42.140625 C1.38196604 88.05336097 1.38196604 88.05336097 -2 110 C-2.33 110 -2.66 110 -3 110 C-3.12382481 103.0795691 -2.98603376 96.19770065 -2.66430664 89.2857666 C-2.12420815 77.54560441 -1.8613903 65.8127491 -1.71875 54.0625 C-1.70442082 52.90053761 -1.70442082 52.90053761 -1.68980217 51.71510124 C-1.60180489 44.48902011 -1.52381186 37.26283632 -1.44775391 30.03662109 C-1.40529112 26.03313808 -1.3581203 22.02973226 -1.30812073 18.02633667 C-1.28164293 15.78328679 -1.26081971 13.54022858 -1.2401123 11.29711914 C-1.22353529 9.94286727 -1.20666583 8.58861894 -1.18945312 7.234375 C-1.17692505 6.05069336 -1.16439697 4.86701172 -1.15148926 3.64746094 C-1 1 -1 1 0 0 Z " fill="#8CD4EE" transform="translate(305,226)"/>
<path d="M0 0 C0.66 0.33 1.32 0.66 2 1 C1.93941406 1.53963379 1.87882812 2.07926758 1.81640625 2.63525391 C-1.4261509 32.53537225 -1.41059598 62.84346209 5.546875 92.2421875 C5.98863125 94.93080743 5.906815 96.46336886 5 99 C2.90649311 95.5980513 2.82057837 92.94727588 3 89 C2.34 89 1.68 89 1 89 C-0.4497868 80.24497682 -1.30667644 71.64001144 -1.65795898 62.77978516 C-1.47262196 59.08364515 -1.47262196 59.08364515 -3 56 C-3.10036349 53.68273946 -3.13081533 51.36240084 -3.1328125 49.04296875 C-3.13376923 48.34359695 -3.13472595 47.64422516 -3.13571167 46.92366028 C-3.13639359 45.43990998 -3.13453847 43.95615671 -3.13037109 42.47241211 C-3.1250469 40.20745057 -3.13030315 37.94268951 -3.13671875 35.67773438 C-3.1360575 34.23697873 -3.13477537 32.79622321 -3.1328125 31.35546875 C-3.13168457 30.04215576 -3.13055664 28.72884277 -3.12939453 27.37573242 C-3.02460298 24.64185927 -2.7396561 22.58896828 -2 20 C-1.7943245 18.41476072 -1.61784254 16.8255624 -1.46484375 15.234375 C-1.37783203 14.34492188 -1.29082031 13.45546875 -1.20117188 12.5390625 C-1.11416016 11.61867187 -1.02714844 10.69828125 -0.9375 9.75 C-0.84662109 8.81414062 -0.75574219 7.87828125 -0.66210938 6.9140625 C-0.43871957 4.60962033 -0.21811272 2.30494663 0 0 Z " fill="#89CFEA" transform="translate(20,208)"/>
<path d="M0 0 C0.66 0 1.32 0 2 0 C3.83940176 5.51820529 3.7044407 11.4699117 4.0625 17.25 C4.10635834 17.95485535 4.15021667 18.65971069 4.19540405 19.38592529 C4.84760992 30.13029429 5.23784263 40.86112471 5.3125 51.625 C5.32998291 52.86024414 5.34746582 54.09548828 5.36547852 55.36816406 C5.35252088 76.64747912 5.35252088 76.64747912 0 82 C0.144375 80.75089844 0.28875 79.50179687 0.4375 78.21484375 C2.77532897 56.83535621 2.03873027 35.92810551 0.4375 14.53515625 C0.08318453 9.66954675 -0.0976545 4.87662148 0 0 Z " fill="#84CDE8" transform="translate(278,280)"/>
<path d="M0 0 C4.63913221 1.49603023 9.1639148 3.19235567 13.6875 5 C14.35072266 5.26039063 15.01394531 5.52078125 15.69726562 5.7890625 C18.70710734 6.98936191 21.29233119 8.19488746 24 10 C20.31434068 11.22855311 19.47524187 10.39009675 16 9 C15.01 9.33 14.02 9.66 13 10 C12.26676204 12.01508358 12.26676204 12.01508358 12 14 C14.90600261 15.25664978 16.79604584 16 20 16 C20 16.66 20 17.32 20 18 C24.48133574 18.72256829 24.48133574 18.72256829 29 19 C29.33 20.65 29.66 22.3 30 24 C23.83761765 22.20730695 18.11410988 19.77620661 12.3125 17.0625 C11.58812744 16.72669922 10.86375488 16.39089844 10.11743164 16.04492188 C5.80956577 14.00188401 1.89934353 11.74489222 -2 9 C-1.34 8.67 -0.68 8.34 0 8 C0 7.01 0 6.02 0 5 C0.99 5.33 1.98 5.66 3 6 C3 6.99 3 7.98 3 9 C4.32 9 5.64 9 7 9 C7.33 8.01 7.66 7.02 8 6 C5.36 4.68 2.72 3.36 0 2 C0 1.34 0 0.68 0 0 Z " fill="#7FD1EE" transform="translate(163,395)"/>
<path d="M0 0 C0.33 0.66 0.66 1.32 1 2 C4.02934491 2.65772428 4.02934491 2.65772428 7 3 C7 3.99 7 4.98 7 6 C8.299375 6.2475 8.299375 6.2475 9.625 6.5 C14.22718932 8.54541748 16.50434961 11.69154819 19 16 C19.66796875 18.2578125 19.66796875 18.2578125 20 20 C17.37886292 20 15.49064888 19.68707555 13 19 C13 18.01 13 17.02 13 16 C12.319375 16.144375 11.63875 16.28875 10.9375 16.4375 C6.8635576 15.83074262 5.1446785 13.83183294 2.3828125 10.890625 C1 9 1 9 0.5625 6.0625 C0.706875 5.381875 0.85125 4.70125 1 4 C0.34 4 -0.32 4 -1 4 C-0.67 2.68 -0.34 1.36 0 0 Z " fill="#6FCDF0" transform="translate(123,365)"/>
<path d="M0 0 C0.33 0 0.66 0 1 0 C1.46426445 5.80330565 0.40389877 8.35831986 -3 13 C-4.30830845 16.68109232 -4.22133243 20.52614202 -4.31640625 24.390625 C-4.33718735 25.09523865 -4.35796844 25.79985229 -4.37937927 26.52581787 C-4.44453837 28.76711681 -4.50360248 31.00852864 -4.5625 33.25 C-4.60571726 34.77344897 -4.64933257 36.29688671 -4.69335938 37.8203125 C-4.80018491 41.54675591 -4.90154639 45.27332494 -5 49 C-4.34 49 -3.68 49 -3 49 C-2.67 53.29 -2.34 57.58 -2 62 C-3.71003846 58.57992307 -4.66345587 55.8542821 -5.5625 52.1875 C-5.81128906 51.19105469 -6.06007813 50.19460938 -6.31640625 49.16796875 C-10.07790123 31.7361263 -8.0290983 15.83604763 0 0 Z " fill="#92D5ED" transform="translate(84,239)"/>
<path d="M0 0 C6.45192802 5.49100257 6.45192802 5.49100257 9.08203125 7.93359375 C14.63465802 13.06602174 20.51564753 17.1215088 27 21 C23.98968256 21.93423645 23.13349732 22.04449911 20 21 C20 21.66 20 22.32 20 23 C19.34 23 18.68 23 18 23 C17.67 21.02 17.34 19.04 17 17 C15.68 16.67 14.36 16.34 13 16 C13 15.01 13 14.02 13 13 C12.01 13 11.02 13 10 13 C10 13.66 10 14.32 10 15 C9.34 15 8.68 15 8 15 C8 15.66 8 16.32 8 17 C9.32 17.33 10.64 17.66 12 18 C11.67 18.99 11.34 19.98 11 21 C5.92377741 17.08566836 0.89372312 13.14084264 -4 9 C-2.68 8.67 -1.36 8.34 0 8 C0 8.99 0 9.98 0 11 C2.97 11.495 2.97 11.495 6 12 C5.63934357 8.87431094 4.44331752 7.18678968 2.4375 4.875 C0 2 0 2 0 0 Z " fill="#88D4EE" transform="translate(136,373)"/>
<path d="M0 0 C11.33556965 -0.06961859 22.67108812 -0.12287152 34.00682831 -0.15543652 C39.27090526 -0.17106886 44.53483556 -0.19226277 49.79882812 -0.22631836 C54.88222183 -0.25899844 59.96547477 -0.2768713 65.04896545 -0.28463173 C66.98497227 -0.29015972 68.9209717 -0.30095449 70.85691833 -0.31719017 C73.5760034 -0.33907941 76.29451239 -0.34196213 79.01367188 -0.34057617 C79.80777466 -0.351362 80.60187744 -0.36214783 81.42004395 -0.3732605 C86.88947748 -0.3432437 91.06498477 0.5631007 96 3 C96.71880341 5.10804462 96.71880341 5.10804462 97 7 C95.9171875 6.2884375 95.9171875 6.2884375 94.8125 5.5625 C90.79667908 3.33148838 86.96226029 2.89860499 82.421875 2.70336914 C81.52581543 2.66432968 80.62975586 2.62529022 79.70654297 2.58506775 C78.73088379 2.54797195 77.75522461 2.51087616 76.75 2.47265625 C75.70859863 2.43133072 74.66719727 2.39000519 73.59423828 2.34742737 C59.7838114 1.83538291 45.96540816 1.65983564 32.14764404 1.46777344 C28.50594608 1.41643964 24.86430474 1.36135363 21.22265625 1.30664062 C14.14848699 1.20088101 7.0742663 1.09907651 0 1 C0 0.67 0 0.34 0 0 Z " fill="#97D7F2" transform="translate(172,219)"/>
<path d="M0 0 C0.33 0 0.66 0 1 0 C0.67 19.47 0.34 38.94 0 59 C-2.12144328 55.81783508 -2.25173132 55.02578496 -2.25878906 51.38012695 C-2.26824554 49.977705 -2.26824554 49.977705 -2.27789307 48.54695129 C-2.2738446 47.53759018 -2.26979614 46.52822906 -2.265625 45.48828125 C-2.26753845 44.44608932 -2.2694519 43.4038974 -2.27142334 42.3301239 C-2.27278533 40.12185424 -2.26908794 37.91357658 -2.26074219 35.70532227 C-2.25009681 32.34307566 -2.26060927 28.98136997 -2.2734375 25.61914062 C-2.27211485 23.471353 -2.26955029 21.3235657 -2.265625 19.17578125 C-2.26967346 18.17654129 -2.27372192 17.17730133 -2.27789307 16.14778137 C-2.23991639 10.42079504 -1.63650993 5.49417175 0 0 Z " fill="#89D4EE" transform="translate(266,130)"/>
<path d="M0 0 C-3.44097466 1.96262999 -6.82420138 2.75073978 -10.6875 3.5625 C-11.84636719 3.81128906 -13.00523437 4.06007812 -14.19921875 4.31640625 C-21.66160931 5.65856283 -29.05642816 6.16365422 -36.62890625 6.31640625 C-37.50401352 6.33718735 -38.37912079 6.35796844 -39.28074646 6.37937927 C-42.04126102 6.44409776 -44.80186017 6.50339341 -47.5625 6.5625 C-49.44857601 6.60575937 -51.33464386 6.64937585 -53.22070312 6.69335938 C-57.81371822 6.7996979 -62.40681729 6.90117746 -67 7 C-63.34554842 4.56369895 -60.53595292 4.67019474 -56.3046875 4.62109375 C-55.55663849 4.60409927 -54.80858948 4.5871048 -54.03787231 4.56959534 C-51.65033374 4.51649081 -49.26281264 4.47616806 -46.875 4.4375 C-44.48013325 4.3936125 -42.085403 4.34697059 -39.69070435 4.29469299 C-38.20063522 4.26266482 -36.71044492 4.235797 -35.22018433 4.21446228 C-31.82146577 4.44375088 -31.82146577 4.44375088 -29 3 C-27.19135802 2.81228263 -25.37732528 2.67578209 -23.5625 2.5625 C-19.51518074 2.26447887 -15.651887 1.80356608 -11.6875 0.9375 C-7.67659184 0.0627462 -4.09661188 -0.17811356 0 0 Z " fill="#93D7ED" transform="translate(378,218)"/>
<path d="M0 0 C0.920728 0.00007553 1.84145599 0.00015106 2.79008484 0.00022888 C3.78079483 0.00539017 4.77150482 0.01055145 5.79223633 0.01586914 C6.80900955 0.01728409 7.82578278 0.01869904 8.87336731 0.02015686 C12.12369721 0.02575832 15.37395846 0.03831107 18.62426758 0.05102539 C20.82674054 0.0560402 23.02921459 0.06060314 25.23168945 0.06469727 C30.63340562 0.07572822 36.0350817 0.09246777 41.43676758 0.11352539 C41.43676758 0.44352539 41.43676758 0.77352539 41.43676758 1.11352539 C40.55754639 1.12810791 39.6783252 1.14269043 38.77246094 1.15771484 C20.79869806 1.48923898 3.22254354 2.27967079 -14.56323242 5.11352539 C-15.99396991 5.32874959 -17.42494366 5.54241194 -18.85620117 5.75415039 C-21.76174557 6.19013776 -24.66354995 6.6404486 -27.56323242 7.11352539 C-25.37883645 4.60384806 -23.93880371 3.70141605 -20.65698242 3.19946289 C-19.91319336 3.07829102 -19.1694043 2.95711914 -18.40307617 2.83227539 C-17.63092773 2.71883789 -16.8587793 2.60540039 -16.06323242 2.48852539 C-0.2019753 -0.00055336 -0.2019753 -0.00055336 0 0 Z " fill="#9BDBF1" transform="translate(224.563232421875,14.886474609375)"/>
<path d="M0 0 C0.33 0 0.66 0 1 0 C1.12519241 7.51154438 1.12519241 7.51154438 0.5234375 9.859375 C-0.43865207 13.79389056 -0.40371092 17.87310481 -0.62109375 21.90625 C-0.85321198 25.12484713 -1.39917726 28.22045578 -1.99609375 31.390625 C-3.36443893 39.3139952 -3.45760769 47.23086212 -3.625 55.25 C-3.66329016 56.78517571 -3.70234776 58.32033247 -3.7421875 59.85546875 C-3.836951 63.57013657 -3.92140505 67.28495071 -4 71 C-4.33 71 -4.66 71 -5 71 C-6.01133315 22.75551904 -6.01133315 22.75551904 0 0 Z " fill="#A4DEF0" transform="translate(8,195)"/>
<path d="M0 0 C1.95099609 0.19916016 1.95099609 0.19916016 3.94140625 0.40234375 C20.61824758 2.01825163 37.25854943 2.59468587 54 3 C54 3.33 54 3.66 54 4 C37.19305257 7.16395848 18.94036629 4.24405815 2 3 C2 2.34 2 1.68 2 1 C1.34 0.67 0.68 0.34 0 0 Z " fill="#95D5ED" transform="translate(212,478)"/>
<path d="M0 0 C0.66 0.33 1.32 0.66 2 1 C2.39587863 4.33497756 2.17727231 5.73041539 0.3046875 8.578125 C-6.32436504 15.86795127 -13.35201942 21.29242992 -22 26 C-22.66 26 -23.32 26 -24 26 C-24 25.01 -24 24.02 -24 23 C-21.68806023 20.92722641 -19.97064418 19.99021473 -17 19 C-16.34 19.33 -15.68 19.66 -15 20 C-15 19.01 -15 18.02 -15 17 C-14.01 17 -13.02 17 -12 17 C-12 16.01 -12 15.02 -12 14 C-10.68 14.33 -9.36 14.66 -8 15 C-7.731875 14.360625 -7.46375 13.72125 -7.1875 13.0625 C-6 11 -6 11 -3 10 C-3.33 8.02 -3.66 6.04 -4 4 C-3.34 4 -2.68 4 -2 4 C-2 4.66 -2 5.32 -2 6 C-1.34 6 -0.68 6 0 6 C0 4.02 0 2.04 0 0 Z " fill="#82D3EE" transform="translate(280,390)"/>
<path d="M0 0 C3.84762566 3.4201117 6.60634022 7.46774256 9 12 C9 12.66 9 13.32 9 14 C4.32307692 12.52307692 4.32307692 12.52307692 2.6875 9.875 C2.460625 9.25625 2.23375 8.6375 2 8 C1.34 8 0.68 8 0 8 C-0.66 10.64 -1.32 13.28 -2 16 C-5.04049801 12.35140239 -6.96518762 8.2555467 -9 4 C-8.34 4 -7.68 4 -7 4 C-7 4.66 -7 5.32 -7 6 C-5.68 6.33 -4.36 6.66 -3 7 C-2.67 6.01 -2.34 5.02 -2 4 C-1.01 4 -0.02 4 1 4 C0.67 2.68 0.34 1.36 0 0 Z " fill="#7ED1EE" transform="translate(392,122)"/>
<path d="M0 0 C0.99 0 1.98 0 3 0 C4.75098126 2.62647188 6.38731308 5.28775382 8 8 C8.66 7.67 9.32 7.34 10 7 C11.125 12.75 11.125 12.75 10 15 C8.125 15.8125 8.125 15.8125 6 16 C3.257453 14.07005952 2.64050874 12.20254368 2 9 C1.67 8.67 1.34 8.34 1 8 C0.95936168 6.33382885 0.957279 4.66611905 1 3 C0.34 3 -0.32 3 -1 3 C-0.67 2.01 -0.34 1.02 0 0 Z " fill="#61CAF1" transform="translate(373,103)"/>
<path d="M0 0 C-2.8636452 1.9090968 -5.21846608 2.89374776 -8.4453125 4.0234375 C-9.52296875 4.405 -10.600625 4.7865625 -11.7109375 5.1796875 C-12.83757812 5.57414062 -13.96421875 5.96859375 -15.125 6.375 C-21.97192528 8.77462334 -28.72604277 11.18030967 -35.28857422 14.28759766 C-37 15 -37 15 -39 15 C-39 14.34 -39 13.68 -39 13 C-38.34 13 -37.68 13 -37 13 C-37 12.34 -37 11.68 -37 11 C-32.545 10.01 -32.545 10.01 -28 9 C-28 8.34 -28 7.68 -28 7 C-26.35 7 -24.7 7 -23 7 C-23 6.34 -23 5.68 -23 5 C-21.88625 4.731875 -20.7725 4.46375 -19.625 4.1875 C-15.48687532 3.16583156 -11.44570006 1.90796674 -7.39453125 0.5859375 C-4.84632608 -0.03760373 -2.61324772 -0.10211625 0 0 Z " fill="#8BD3EC" transform="translate(188,24)"/>
<path d="M0 0 C0.33 0 0.66 0 1 0 C1.07516846 0.70906494 1.15033691 1.41812988 1.2277832 2.14868164 C3.1306871 20.3173956 3.1306871 20.3173956 6.546875 38.2421875 C6.98863125 40.93080743 6.906815 42.46336886 6 45 C3.90649311 41.5980513 3.82057837 38.94727588 4 35 C3.34 35 2.68 35 2 35 C-0.20337033 23.29459515 -0.22082273 11.86667354 0 0 Z " fill="#99D8F0" transform="translate(19,262)"/>
<path d="M0 0 C0 0.33 0 0.66 0 1 C-8.94880653 3.34537553 -17.94200163 3.43549702 -27.125 3.625 C-28.66929076 3.66326676 -30.21356216 3.70232323 -31.7578125 3.7421875 C-35.50502913 3.83722467 -39.25239417 3.92159287 -43 4 C-43 3.67 -43 3.34 -43 3 C-28.56698957 0.78437183 -14.60224226 -0.43182973 0 0 Z " fill="#93D7EE" transform="translate(184,204)"/>
<path d="M0 0 C0.33 0.66 0.66 1.32 1 2 C1.99 1.34 2.98 0.68 4 0 C7.1796875 -0.265625 7.1796875 -0.265625 10.875 -0.25 C12.08929688 -0.25515625 13.30359375 -0.2603125 14.5546875 -0.265625 C17.82444211 -0.01353508 20.06519555 0.59397201 23 2 C23 2.66 23 3.32 23 4 C21.700625 3.835 20.40125 3.67 19.0625 3.5 C10.4793021 2.13647939 10.4793021 2.13647939 2.625 4.625 C0.78751826 7.31055023 -0.65422954 10.03930499 -2 13 C-2.33 13 -2.66 13 -3 13 C-2.88557539 11.39504433 -2.75805306 9.79101881 -2.625 8.1875 C-2.55539062 7.29417969 -2.48578125 6.40085937 -2.4140625 5.48046875 C-2 3 -2 3 0 0 Z " fill="#88D1ED" transform="translate(313,85)"/>
<path d="M0 0 C1.09445225 3.28335675 0.84584594 3.83573611 0 7 C-0.2278254 10.9132363 -0.18980696 14.83076909 -0.1875 18.75 C-0.18814453 19.8649585 -0.18878906 20.97991699 -0.18945312 22.12866211 C-0.13378207 30.89495615 0.55687026 39.35410667 2 48 C1.67 47.34 1.34 46.68 1 46 C0.34 46 -0.32 46 -1 46 C-2.11068666 38.9196588 -2.42000417 31.85819303 -2.66748047 24.70239258 C-2.72256873 23.19039902 -2.78476406 21.67864795 -2.85400391 20.16723633 C-2.95480523 17.96465564 -3.03439563 15.76218728 -3.109375 13.55859375 C-3.16061523 12.25204834 -3.21185547 10.94550293 -3.26464844 9.59936523 C-2.978063 5.70164461 -1.97255481 3.33908763 0 0 Z " fill="#A2DDF0" transform="translate(94,261)"/>
<path d="M0 0 C0 0.33 0 0.66 0 1 C-0.76143311 0.98952637 -1.52286621 0.97905273 -2.30737305 0.96826172 C-5.7673816 0.92660981 -9.22733731 0.9006444 -12.6875 0.875 C-13.88568359 0.85824219 -15.08386719 0.84148437 -16.31835938 0.82421875 C-17.47529297 0.81777344 -18.63222656 0.81132813 -19.82421875 0.8046875 C-20.88729248 0.79421387 -21.95036621 0.78374023 -23.0456543 0.77294922 C-26.10009832 1.00769287 -28.20618904 1.80160292 -31 3 C-34.3125 3.125 -34.3125 3.125 -37 3 C-27.98205487 -5.62586056 -10.88396479 -2.4428939 0 0 Z " fill="#96D6EE" transform="translate(332,75)"/>
<path d="M0 0 C0.66 0.99 1.32 1.98 2 3 C0.38304324 5.65082912 -1.2448885 8.29474348 -2.875 10.9375 C-3.33519531 11.69224609 -3.79539062 12.44699219 -4.26953125 13.22460938 C-4.71425781 13.94326172 -5.15898437 14.66191406 -5.6171875 15.40234375 C-6.02565918 16.06741943 -6.43413086 16.73249512 -6.85498047 17.41772461 C-8 19 -8 19 -10 20 C-10.25 13.375 -10.25 13.375 -8 10 C-7.34 10 -6.68 10 -6 10 C-5.67 9.34 -5.34 8.68 -5 8 C-5.66 8 -6.32 8 -7 8 C-6.3125 6.0625 -6.3125 6.0625 -5 4 C-2.375 3.25 -2.375 3.25 0 3 C0 2.01 0 1.02 0 0 Z " fill="#79CEF0" transform="translate(463,374)"/>
<path d="M0 0 C0 0.66 0 1.32 0 2 C-0.61875 2.45375 -1.2375 2.9075 -1.875 3.375 C-4.12753352 4.82722659 -4.12753352 4.82722659 -4.9375 7.125 C-6 9 -6 9 -8.4375 9.875 C-11 10 -11 10 -14 8 C-14 8.66 -14 9.32 -14 10 C-14.66 10 -15.32 10 -16 10 C-16.33 10.99 -16.66 11.98 -17 13 C-18.32 12.34 -19.64 11.68 -21 11 C-18.58442212 9.53983725 -16.16759629 8.08181403 -13.75 6.625 C-13.06808594 6.2125 -12.38617188 5.8 -11.68359375 5.375 C-11.01972656 4.97539063 -10.35585937 4.57578125 -9.671875 4.1640625 C-9.0644043 3.79748535 -8.45693359 3.4309082 -7.83105469 3.05322266 C-2.52294854 0 -2.52294854 0 0 0 Z " fill="#79CEED" transform="translate(138,28)"/>
<path d="M0 0 C-12.29311099 6.03872119 -28.79033143 5.79173408 -42 3 C-42 2.67 -42 2.34 -42 2 C-34.41 2.33 -26.82 2.66 -19 3 C-19 2.34 -19 1.68 -19 1 C-16.39674384 0.63752129 -13.79279598 0.28472345 -11.1875 -0.0625 C-10.44951172 -0.16626953 -9.71152344 -0.27003906 -8.95117188 -0.37695312 C-5.56825221 -0.82086566 -3.27944975 -1.09314992 0 0 Z " fill="#89D2ED" transform="translate(249,420)"/>
<path d="M0 0 C2.29823659 2.29823659 2.29690384 2.94880882 2.5625 6.0625 C2.55913448 9.76736617 2.55913448 9.76736617 4 11 C4.32097751 13.31817089 4.51220956 15.63779357 4.71875 17.96875 C4.79065837 19.99180593 4.79065837 19.99180593 6 21 C6.23527773 23.34987262 6.41386417 25.70556039 6.5625 28.0625 C6.64628906 29.35285156 6.73007813 30.64320313 6.81640625 31.97265625 C6.87699219 32.97167969 6.93757812 33.97070312 7 35 C4.94847578 31.92271367 4.43138225 30.05801428 3.7109375 26.484375 C3.49179688 25.39769531 3.27265625 24.31101562 3.046875 23.19140625 C2.82515625 22.05574219 2.6034375 20.92007812 2.375 19.75 C2.14554687 18.62980469 1.91609375 17.50960938 1.6796875 16.35546875 C0.58105275 10.81651856 -0.31021203 5.64912425 0 0 Z " fill="#94D5ED" transform="translate(5,278)"/>
<path d="M0 0 C0.66 0 1.32 0 2 0 C3.23180134 3.69540402 3.12412112 7.10303378 3.09765625 10.94921875 C3.0962413 11.72183548 3.09482635 12.49445221 3.09336853 13.29048157 C3.08777466 15.75619389 3.07522333 18.22181515 3.0625 20.6875 C3.05748421 22.36002473 3.05292144 24.03255088 3.04882812 25.70507812 C3.03780724 29.80342046 3.02054684 33.90169479 3 38 C2.67 38 2.34 38 2 38 C1.71165822 33.87425864 1.4269712 29.74828529 1.14550781 25.62207031 C1.04948009 24.22161232 0.95249494 22.82121961 0.85449219 21.42089844 C-0.14642567 7.101645 -0.14642567 7.101645 0 0 Z " fill="#95D9EE" transform="translate(278,280)"/>
<path d="M0 0 C1.56621094 0.32484375 1.56621094 0.32484375 3.1640625 0.65625 C15.51082029 3.04745752 27.45051788 3.34457181 40 3 C39.67 3.66 39.34 4.32 39 5 C14.01734161 5.20638953 14.01734161 5.20638953 4 4 C4 3.34 4 2.68 4 2 C2.35 2 0.7 2 -1 2 C-0.67 1.34 -0.34 0.68 0 0 Z " fill="#90D2EB" transform="translate(188,405)"/>
<path d="M0 0 C0.99 0.33 1.98 0.66 3 1 C1.42630562 6.54369609 -1.18583587 11.26490926 -4 16.25 C-4.45117188 17.0646875 -4.90234375 17.879375 -5.3671875 18.71875 C-8.7324953 24.7324953 -8.7324953 24.7324953 -11 27 C-11.25 23.75 -11.25 23.75 -11 20 C-9.0625 17.875 -9.0625 17.875 -7 16 C-6.835 15.175 -6.67 14.35 -6.5 13.5 C-6 11 -6 11 -4.0625 9.125 C-1.36946122 6.35035399 -0.85714656 3.71430176 0 0 Z " fill="#8BD1EC" transform="translate(51,123)"/>
<path d="M0 0 C0.33 0 0.66 0 1 0 C0.35021964 10.53092316 -2.06639885 22.09959827 -8 31 C-7.46554061 23.72081369 -5.74582101 17.34417931 -3.4375 10.4375 C-3.10814453 9.42880859 -2.77878906 8.42011719 -2.43945312 7.38085938 C-1.63403418 4.91791158 -0.82077961 2.45786243 0 0 Z " fill="#8FD4EC" transform="translate(17,164)"/>
<path d="M0 0 C2.89784907 2.89784907 3.92763675 4.88271145 4.1953125 9.015625 C4.17210937 10.08296875 4.14890625 11.1503125 4.125 12.25 C4.10695313 13.32765625 4.08890625 14.4053125 4.0703125 15.515625 C4.04710937 16.33546875 4.02390625 17.1553125 4 18 C4.66 18 5.32 18 6 18 C6.08333357 22.8333472 5.95261487 27.23692563 5 32 C4.67 32 4.34 32 4 32 C3.51937028 28.35435802 3.04076712 24.70845262 2.5625 21.0625 C2.42779297 20.04091797 2.29308594 19.01933594 2.15429688 17.96679688 C1.37056428 11.98366756 0.64439593 5.99976404 0 0 Z " fill="#97D8EE" transform="translate(479,198)"/>
<path d="M0 0 C6.43681494 3.31593497 11.68406503 8.56318506 15 15 C14.01 15.66 13.02 16.32 12 17 C11.34 15.35 10.68 13.7 10 12 C9.34 12 8.68 12 8 12 C8 10.68 8 9.36 8 8 C4.9254644 8.7763932 4.9254644 8.7763932 3 11 C2 10 2 10 1.9375 6.4375 C1.958125 5.303125 1.97875 4.16875 2 3 C1.34 2.67 0.68 2.34 0 2 C0 1.34 0 0.68 0 0 Z " fill="#88D4EF" transform="translate(368,95)"/>
<path d="M0 0 C0.78375 0.04125 1.5675 0.0825 2.375 0.125 C4.00450412 4.24668689 4.63764601 6.83200357 3.375 11.125 C2.055 10.465 0.735 9.805 -0.625 9.125 C-0.625 8.465 -0.625 7.805 -0.625 7.125 C-1.285 7.125 -1.945 7.125 -2.625 7.125 C-2.625 6.135 -2.625 5.145 -2.625 4.125 C-3.285 3.465 -3.945 2.805 -4.625 2.125 C-2.625 0.125 -2.625 0.125 0 0 Z " fill="#63CAF0" transform="translate(108.625,342.875)"/>
<path d="M0 0 C2.15377564 2.62198774 3.40072174 4.64404172 4 8 C2.02 8.66 0.04 9.32 -2 10 C-2 10.66 -2 11.32 -2 12 C-1.34 12.33 -0.68 12.66 0 13 C-0.66 13.66 -1.32 14.32 -2 15 C-2.83848804 13.54462432 -3.67063934 12.08559627 -4.5 10.625 C-4.9640625 9.81289063 -5.428125 9.00078125 -5.90625 8.1640625 C-7 6 -7 6 -7 4 C-5.35 3.67 -3.7 3.34 -2 3 C-2.33 4.98 -2.66 6.96 -3 9 C-2.01 8.34 -1.02 7.68 0 7 C0.25015873 3.41642759 0.25015873 3.41642759 0 0 Z " fill="#8CD7F1" transform="translate(102,327)"/>
<path d="M0 0 C0 0.33 0 0.66 0 1 C-0.969375 1.09796875 -1.93875 1.1959375 -2.9375 1.296875 C-12.88947441 2.38067905 -22.35016007 4.35655981 -32 7 C-31.67 6.01 -31.34 5.02 -31 4 C-28.5 2.9375 -28.5 2.9375 -25 2 C-24.39414063 1.81308594 -23.78828125 1.62617188 -23.1640625 1.43359375 C-15.57474357 -0.64547255 -7.7963161 -0.17218858 0 0 Z " fill="#A3DEF2" transform="translate(165,220)"/>
<path d="M0 0 C0.66 0.33 1.32 0.66 2 1 C1.01 2.485 1.01 2.485 0 4 C-0.66 4 -1.32 4 -2 4 C-2 4.66 -2 5.32 -2 6 C-8.75 10 -8.75 10 -11 10 C-11 10.99 -11 11.98 -11 13 C-13.97 12.505 -13.97 12.505 -17 12 C-13.36743046 9.00767927 -9.61586825 6.34013291 -5.6875 3.75 C-4.08455078 2.69039063 -4.08455078 2.69039063 -2.44921875 1.609375 C-1.64097656 1.07828125 -0.83273437 0.5471875 0 0 Z " fill="#8CD6EC" transform="translate(384,439)"/>
<path d="M0 0 C1.09180878 3.30529345 0.88297902 5.42086032 0.00390625 8.765625 C-0.33930664 10.09980469 -0.33930664 10.09980469 -0.68945312 11.4609375 C-0.93630859 12.38132812 -1.18316406 13.30171875 -1.4375 14.25 C-1.68048828 15.18585938 -1.92347656 16.12171875 -2.17382812 17.0859375 C-2.77412867 19.3929749 -3.38310665 21.69735439 -4 24 C-4.33 24 -4.66 24 -5 24 C-4.505 15.09 -4.505 15.09 -4 6 C-3.01 6 -2.02 6 -1 6 C-1.020625 5.195625 -1.04125 4.39125 -1.0625 3.5625 C-1 1 -1 1 0 0 Z " fill="#90D7EE" transform="translate(301,338)"/>
<path d="M0 0 C0.99 0 1.98 0 3 0 C3 0.99 3 1.98 3 3 C4.65 3.33 6.3 3.66 8 4 C8 5.98 8 7.96 8 10 C6.02 9.34 4.04 8.68 2 8 C2 7.01 2 6.02 2 5 C0.68 4.67 -0.64 4.34 -2 4 C-2 3.34 -2 2.68 -2 2 C-1.34 2 -0.68 2 0 2 C0 1.34 0 0.68 0 0 Z " fill="#62CAF2" transform="translate(146,386)"/>
<path d="M0 0 C0.66 0.33 1.32 0.66 2 1 C-1.9289259 3.84847128 -5.54166149 5.68547824 -10.1171875 7.27734375 C-12.20104198 8.01364488 -12.20104198 8.01364488 -14.6875 9.625 C-17.15437714 11.09179182 -19.17692514 11.59670359 -22 12 C-19.93604369 9.76537038 -18.03678948 8.3343007 -15.3125 6.9921875 C-14.61382812 6.64542969 -13.91515625 6.29867187 -13.1953125 5.94140625 C-12.47085938 5.58949219 -11.74640625 5.23757812 -11 4.875 C-9.91332031 4.33552734 -9.91332031 4.33552734 -8.8046875 3.78515625 C-5.88063527 2.34470985 -3.09876041 1.03292014 0 0 Z " fill="#94D8EE" transform="translate(120,213)"/>
<path d="M0 0 C0.99 0.33 1.98 0.66 3 1 C3 1.66 3 2.32 3 3 C3.66 3 4.32 3 5 3 C5 3.66 5 4.32 5 5 C5.66 5 6.32 5 7 5 C7.66 7.97 8.32 10.94 9 14 C9.66 14 10.32 14 11 14 C10.67 15.32 10.34 16.64 10 18 C8.32605999 15.37957157 6.6621165 12.75294095 5 10.125 C4.52304687 9.37863281 4.04609375 8.63226563 3.5546875 7.86328125 C3.10351562 7.14785156 2.65234375 6.43242188 2.1875 5.6953125 C1.76855469 5.03547363 1.34960938 4.37563477 0.91796875 3.69580078 C0 2 0 2 0 0 Z " fill="#90D5EC" transform="translate(445,118)"/>
<path d="M0 0 C0 0.99 0 1.98 0 3 C-3.4320047 6.0922885 -6.90973508 7.90265492 -11.5 8.3125 C-12.7375 8.1578125 -12.7375 8.1578125 -14 8 C-14 7.34 -14 6.68 -14 6 C-12.41925436 5.18247697 -10.83528777 4.37118003 -9.25 3.5625 C-8.36828125 3.11003906 -7.4865625 2.65757812 -6.578125 2.19140625 C-4.35801434 1.16544602 -2.38555381 0.48491397 0 0 Z " fill="#7AD0E6" transform="translate(252,398)"/>
<path d="M0 0 C3.53191322 3.43153914 6.7137505 6.97375062 9.8125 10.8125 C10.60269531 11.78832031 11.39289063 12.76414062 12.20703125 13.76953125 C13.09455078 14.87361328 13.09455078 14.87361328 14 16 C13.01 16.33 12.02 16.66 11 17 C9.5 15.6875 9.5 15.6875 8 14 C8 13.01 8 12.02 8 11 C7.0409375 10.8453125 7.0409375 10.8453125 6.0625 10.6875 C5.381875 10.460625 4.70125 10.23375 4 10 C3.67 9.01 3.34 8.02 3 7 C2.484375 6.525625 1.96875 6.05125 1.4375 5.5625 C0 4 0 4 0 0 Z " fill="#8BD4EC" transform="translate(66,389)"/>
<path d="M0 0 C-0.66 0 -1.32 0 -2 0 C-2.24492188 0.57234375 -2.48984375 1.1446875 -2.7421875 1.734375 C-4.21110099 4.38024402 -5.95348244 6.14853139 -8.125 8.25 C-8.84945312 8.95640625 -9.57390625 9.6628125 -10.3203125 10.390625 C-10.87460938 10.92171875 -11.42890625 11.4528125 -12 12 C-12.33 10.68 -12.66 9.36 -13 8 C-11.68 7.67 -10.36 7.34 -9 7 C-9 5.35 -9 3.7 -9 2 C-3.375 -1.125 -3.375 -1.125 0 0 Z " fill="#8AD3EF" transform="translate(89,83)"/>
<path d="M0 0 C0.66 0.33 1.32 0.66 2 1 C0.52841629 4.61497739 -1.41462331 6.40591511 -4.5 8.75 C-5.2940625 9.36359375 -6.088125 9.9771875 -6.90625 10.609375 C-9 12 -9 12 -11 12 C-11 12.66 -11 13.32 -11 14 C-11.66 14 -12.32 14 -13 14 C-11.43416404 9.96278439 -8.55826135 7.52929418 -5.375 4.75 C-4.859375 4.29109375 -4.34375 3.8321875 -3.8125 3.359375 C-2.5465398 2.23407704 -1.27392058 1.11627823 0 0 Z " fill="#94D7ED" transform="translate(293,78)"/>
<path d="M0 0 C0.99 0.66 1.98 1.32 3 2 C3.66 2.33 4.32 2.66 5 3 C2.66666667 5.33333333 0.33333333 7.66666667 -2 10 C-2.66 9.34 -3.32 8.68 -4 8 C-4.99 8.33 -5.98 8.66 -7 9 C-5.44499019 5.18315774 -2.96404505 2.80804268 0 0 Z " fill="#7ED2F2" transform="translate(72,76)"/>
<path d="M0 0 C0.53625 0.268125 1.0725 0.53625 1.625 0.8125 C0.625 3.8125 0.625 3.8125 -2.3125 5.5 C-5.375 6.8125 -5.375 6.8125 -7.375 6.8125 C-7.375 7.4725 -7.375 8.1325 -7.375 8.8125 C-9.355 9.1425 -11.335 9.4725 -13.375 9.8125 C-11.72946591 8.11856785 -10.07080608 6.45517377 -8.375 4.8125 C-7.61896484 4.07966797 -7.61896484 4.07966797 -6.84765625 3.33203125 C-2.92538149 -0.23095117 -2.92538149 -0.23095117 0 0 Z " fill="#88D4EC" transform="translate(403.375,426.1875)"/>
<path d="M0 0 C2.62901288 1.52206009 4.84365964 2.84365964 7 5 C6.625 7.125 6.625 7.125 6 9 C4.02 8.34 2.04 7.68 0 7 C0 6.01 0 5.02 0 4 C-0.66 4 -1.32 4 -2 4 C-1.34 2.68 -0.68 1.36 0 0 Z " fill="#62C9F2" transform="translate(136,377)"/>
<path d="M0 0 C0.95465783 2.16967689 1.14401212 3.56328793 0.3984375 5.82421875 C-0.35870385 7.5684743 -1.17609198 9.28627131 -2 11 C-2.66 11 -3.32 11 -4 11 C-4 11.99 -4 12.98 -4 14 C-4.99 14 -5.98 14 -7 14 C-7.33 15.32 -7.66 16.64 -8 18 C-8.99 17.67 -9.98 17.34 -11 17 C-10.45730469 16.27554687 -9.91460937 15.55109375 -9.35546875 14.8046875 C-8.64003906 13.83789062 -7.92460937 12.87109375 -7.1875 11.875 C-6.47980469 10.92367188 -5.77210938 9.97234375 -5.04296875 8.9921875 C-3.05996771 6.08783034 -1.49489388 3.17841791 0 0 Z " fill="#8ED4EB" transform="translate(274,370)"/>
<path d="M0 0 C1.65 0 3.3 0 5 0 C4.60167969 0.56847656 4.20335938 1.13695312 3.79296875 1.72265625 C0.61296591 6.35725893 -1.98935534 10.7499834 -4 16 C-4.33 16 -4.66 16 -5 16 C-5 13.69 -5 11.38 -5 9 C-4.34 9 -3.68 9 -3 9 C-3 7.68 -3 6.36 -3 5 C-2.34 5 -1.68 5 -1 5 C-0.67 3.35 -0.34 1.7 0 0 Z " fill="#90D5EF" transform="translate(100,244)"/>
<path d="M0 0 C5.03163018 4.29785078 10.02718443 8.63425542 15 13 C14.01 13.495 14.01 13.495 13 14 C10.875 13.0625 10.875 13.0625 9 12 C9 11.34 9 10.68 9 10 C8.38125 9.938125 7.7625 9.87625 7.125 9.8125 C6.42375 9.544375 5.7225 9.27625 5 9 C4.29788106 7.34795544 3.63028587 5.68076231 3 4 C2.01 3.67 1.02 3.34 0 3 C0 2.01 0 1.02 0 0 Z " fill="#8DD2EE" transform="translate(88,414)"/>
<path d="M0 0 C0.99 0 1.98 0 3 0 C2.45230629 4.18238834 0.10111111 6.59868545 -2.5625 9.75 C-3.80193359 11.22726562 -3.80193359 11.22726562 -5.06640625 12.734375 C-5.70449219 13.48203125 -6.34257812 14.2296875 -7 15 C-7.33 13.68 -7.66 12.36 -8 11 C-7.34 11 -6.68 11 -6 11 C-5.34 9.35 -4.68 7.7 -4 6 C-3.01 6 -2.02 6 -1 6 C-0.67 4.02 -0.34 2.04 0 0 Z " fill="#89D3EB" transform="translate(449,394)"/>
<path d="M0 0 C0.66 0 1.32 0 2 0 C2.32613281 0.78503906 2.65226562 1.57007813 2.98828125 2.37890625 C5.29789053 7.93150673 7.61590894 13.47894701 10 19 C9.34 19.66 8.68 20.32 8 21 C6.66087415 17.87745057 5.32969342 14.75157642 4 11.625 C3.6184375 10.73554688 3.236875 9.84609375 2.84375 8.9296875 C2.30234375 7.65351563 2.30234375 7.65351563 1.75 6.3515625 C1.41484375 5.56604004 1.0796875 4.78051758 0.734375 3.97119141 C0 2 0 2 0 0 Z " fill="#95D5ED" transform="translate(19,336)"/>
<path d="M0 0 C0.33 0 0.66 0 1 0 C3.15408416 7.88644034 2.937402 14.91807467 2 23 C1.67 23 1.34 23 1 23 C0.63400603 20.4803886 0.28199149 17.96006672 -0.0625 15.4375 C-0.16626953 14.73302734 -0.27003906 14.02855469 -0.37695312 13.30273438 C-1.0046656 8.60571341 -0.87579081 4.66067698 0 0 Z " fill="#92D7EE" transform="translate(276,256)"/>
<path d="M0 0 C4.52615993 3.67832017 8.39424999 7.41086363 12 12 C9.69 11.67 7.38 11.34 5 11 C5.33 9.68 5.66 8.36 6 7 C4.35 6.67 2.7 6.34 1 6 C0.67 4.02 0.34 2.04 0 0 Z " fill="#94D7ED" transform="translate(124,361)"/>
<path d="M0 0 C1.65 1.65 3.3 3.3 5 5 C4.34 5.66 3.68 6.32 3 7 C1.68 6.34 0.36 5.68 -1 5 C-1.33 6.32 -1.66 7.64 -2 9 C-1.34 9.33 -0.68 9.66 0 10 C-0.99 10 -1.98 10 -3 10 C-7 5.65714286 -7 5.65714286 -7 3 C-4.66666667 3 -2.33333333 3 0 3 C0 2.01 0 1.02 0 0 Z " fill="#8BD4F0" transform="translate(119,355)"/>
<path d="M0 0 C0.33 0 0.66 0 1 0 C1.38133299 1.9914056 1.71325582 3.99279077 2 6 C1 7 1 7 -1.5625 7.0625 C-2.7690625 7.0315625 -2.7690625 7.0315625 -4 7 C-4.33 7.99 -4.66 8.98 -5 10 C-6.32 9.34 -7.64 8.68 -9 8 C-6.36324434 5.08073481 -4.76539616 3.90888873 -1 3 C-0.67 2.01 -0.34 1.02 0 0 Z " fill="#73CDF3" transform="translate(267,384)"/>
<path d="M0 0 C1.32 0 2.64 0 4 0 C4.33 0.66 4.66 1.32 5 2 C5.99 2.33 6.98 2.66 8 3 C8 3.66 8 4.32 8 5 C3.52941176 9 3.52941176 9 1 9 C1.020625 8.071875 1.04125 7.14375 1.0625 6.1875 C1.15769604 2.97713989 1.15769604 2.97713989 0 0 Z " fill="#77CFEE" transform="translate(104,58)"/>
<path d="M0 0 C7.03645577 1.88619822 14.03359344 3.86927695 21 6 C21 6.33 21 6.66 21 7 C13.47477866 7.4907753 6.64928537 5.51571411 0 2 C0 1.34 0 0.68 0 0 Z " fill="#9AD8EE" transform="translate(168,466)"/>
<path d="M0 0 C0.33 0.66 0.66 1.32 1 2 C0.34 2 -0.32 2 -1 2 C-1.2475 2.78375 -1.495 3.5675 -1.75 4.375 C-3 7 -3 7 -5.0625 8 C-6.0215625 8.495 -6.0215625 8.495 -7 9 C-7.81171228 11.55519921 -7.81171228 11.55519921 -8 14 C-9.32 14 -10.64 14 -12 14 C-10.66445565 10.02119078 -9.01381696 7.65301487 -6 4.75 C-4.948125 3.72132813 -4.948125 3.72132813 -3.875 2.671875 C-2 1 -2 1 0 0 Z " fill="#90D6EE" transform="translate(97,225)"/>
<path d="M0 0 C1.32 0 2.64 0 4 0 C4 0.66 4 1.32 4 2 C1.9237343 3.03513247 -0.16131479 4.05266211 -2.25 5.0625 C-3.41015625 5.63097656 -4.5703125 6.19945312 -5.765625 6.78515625 C-8.90644333 7.96485975 -9.99353048 8.30230734 -13 7 C-10.14415227 5.09610151 -8.0688238 4.30537823 -4.8125 3.375 C-3.91144531 3.11460937 -3.01039063 2.85421875 -2.08203125 2.5859375 C-1.39496094 2.39257812 -0.70789063 2.19921875 0 2 C0 1.34 0 0.68 0 0 Z " fill="#8FD4EC" transform="translate(391,210)"/>
<path d="M0 0 C-3.36404218 2.24269478 -6.75716923 3.38655744 -10.5625 4.625 C-11.24763672 4.85445312 -11.93277344 5.08390625 -12.63867188 5.3203125 C-17.73272414 7 -17.73272414 7 -20 7 C-20 6.34 -20 5.68 -20 5 C-18.43979133 4.34865075 -16.87671421 3.70417036 -15.3125 3.0625 C-14.44238281 2.70285156 -13.57226562 2.34320312 -12.67578125 1.97265625 C-8.39029549 0.41486654 -4.54771767 -0.12993479 0 0 Z " fill="#98D6F0" transform="translate(188,24)"/>
<path d="M0 0 C0 0.66 0 1.32 0 2 C-5.26488779 5.61020877 -9.5943007 7.2979395 -16 7 C-13.10357159 4.64917788 -10.34643669 3.16480594 -6.875 1.8125 C-5.57175781 1.29623047 -5.57175781 1.29623047 -4.2421875 0.76953125 C-2 0 -2 0 0 0 Z " fill="#8ED4F0" transform="translate(164,16)"/>
<path d="M0 0 C5.3762621 2.91214197 10.17918273 6.24351901 15 10 C13.09375 10.5859375 13.09375 10.5859375 11 11 C9.5 9.625 9.5 9.625 8 8 C6.9790625 7.7834375 6.9790625 7.7834375 5.9375 7.5625 C4 7 4 7 2.875 5 C2.58625 4.34 2.2975 3.68 2 3 C1.34 2.67 0.68 2.34 0 2 C0 1.34 0 0.68 0 0 Z " fill="#93D7EC" transform="translate(104,429)"/>
<path d="M0 0 C1.98 0.66 3.96 1.32 6 2 C6.12375 2.928125 6.2475 3.85625 6.375 4.8125 C6.81533082 8.13925235 6.81533082 8.13925235 9 11 C8.67 11.99 8.34 12.98 8 14 C6.66101601 12.04532248 5.32870953 10.0866421 4 8.125 C3.2575 7.03445313 2.515 5.94390625 1.75 4.8203125 C0 2 0 2 0 0 Z " fill="#93D4ED" transform="translate(40,378)"/>
<path d="M0 0 C0.33 0 0.66 0 1 0 C1 1.98 1 3.96 1 6 C0.34 6 -0.32 6 -1 6 C-0.938125 6.721875 -0.87625 7.44375 -0.8125 8.1875 C-1.1306815 12.96022252 -3.68333257 15.78552681 -7 19 C-5.17778624 12.38757278 -2.94776396 6.19479329 0 0 Z " fill="#94D6F0" transform="translate(26,142)"/>
<path d="M0 0 C2.64 0 5.28 0 8 0 C5.38928701 2.06681445 2.66162161 3.93109607 -0.125 5.75 C-0.80820313 6.19859375 -1.49140625 6.6471875 -2.1953125 7.109375 C-3.08863281 7.55023438 -3.08863281 7.55023438 -4 8 C-4.66 7.67 -5.32 7.34 -6 7 C-5.67 6.34 -5.34 5.68 -5 5 C-5.66 4.67 -6.32 4.34 -7 4 C-4.69 3.34 -2.38 2.68 0 2 C0 1.34 0 0.68 0 0 Z " fill="#8AD4EB" transform="translate(137,41)"/>
<path d="M0 0 C-2.55238691 2.55238691 -5.017787 3.37101985 -8.375 4.6875 C-10.08816406 5.37392578 -10.08816406 5.37392578 -11.8359375 6.07421875 C-14.88202691 6.96548195 -16.12218589 7.169555 -19 6 C-16.09907498 4.06604999 -15.10325263 3.69868059 -11.8125 3.375 C-10.554375 3.25125 -9.29625 3.1275 -8 3 C-8 2.34 -8 1.68 -8 1 C-5.07175348 0.02391783 -3.04386724 -0.08226668 0 0 Z " fill="#94D9EB" transform="translate(349,477)"/>
<path d="M0 0 C1.43739513 -0.02712066 2.87493863 -0.04645067 4.3125 -0.0625 C5.51326172 -0.07990234 5.51326172 -0.07990234 6.73828125 -0.09765625 C9 0 9 0 12 1 C12.33 1.66 12.66 2.32 13 3 C15.01669827 4.13350534 15.01669827 4.13350534 17 5 C15 6 15 6 11.5234375 5.00390625 C10.13802064 4.53099953 8.75528453 4.05018356 7.375 3.5625 C6.31539063 3.19801758 6.31539063 3.19801758 5.234375 2.82617188 C3.48726713 2.22412795 1.74332214 1.61291983 0 1 C0 0.67 0 0.34 0 0 Z " fill="#97D9EF" transform="translate(315,24)"/>
<path d="M0 0 C0.33 0.99 0.66 1.98 1 3 C0.67 3.66 0.34 4.32 0 5 C-0.99 5 -1.98 5 -3 5 C-3 6.65 -3 8.3 -3 10 C-5.31 10.66 -7.62 11.32 -10 12 C-3.84965831 3.55353075 -3.84965831 3.55353075 0 0 Z " fill="#8FD6EF" transform="translate(425,403)"/>
<path d="M0 0 C1 2 1 2 0.375 4.5 C-1 7 -1 7 -3.375 8.375 C-6.13945539 9.03320367 -7.34311004 8.78010812 -10 8 C-9.36191406 7.50628906 -8.72382813 7.01257813 -8.06640625 6.50390625 C-7.24011719 5.86324219 -6.41382813 5.22257813 -5.5625 4.5625 C-4.73878906 3.92441406 -3.91507812 3.28632813 -3.06640625 2.62890625 C-1.12498733 1.16417803 -1.12498733 1.16417803 0 0 Z " fill="#8BD2EB" transform="translate(389,190)"/>
<path d="M0 0 C1.29132785 3.87398355 0.41113572 6.81988786 -0.4375 10.6875 C-0.58509766 11.38939453 -0.73269531 12.09128906 -0.88476562 12.81445312 C-1.2495932 14.54444194 -1.62388689 16.27242963 -2 18 C-4.29013653 14.5647952 -4.17842973 13.014669 -4 9 C-3.34 9 -2.68 9 -2 9 C-2.04125 8.071875 -2.0825 7.14375 -2.125 6.1875 C-2 3 -2 3 0 0 Z " fill="#94D6EE" transform="translate(25,190)"/>
<path d="M0 0 C-0.99 1.485 -0.99 1.485 -2 3 C-1.69159401 5.15274948 -1.69159401 5.15274948 -1 7 C-6.75 3.375 -6.75 3.375 -9 0 C-5.62182575 -0.84454356 -3.32534757 -1.10844919 0 0 Z " fill="#7FD1ED" transform="translate(407,67)"/>
<path d="M0 0 C0.33 0 0.66 0 1 0 C1.33 2.31 1.66 4.62 2 7 C1.34 7 0.68 7 0 7 C-0.33 7.99 -0.66 8.98 -1 10 C-2.32 10 -3.64 10 -5 10 C-3.66654496 6.40992874 -2.1056769 3.20429093 0 0 Z " fill="#83D1EE" transform="translate(452,366)"/>
<path d="M0 0 C0.33 0 0.66 0 1 0 C1.16682272 4.92127034 1.24828052 8.50343896 -1 13 C-2.32 13 -3.64 13 -5 13 C-4.72285156 12.48050781 -4.44570313 11.96101562 -4.16015625 11.42578125 C-2.19266733 7.63783995 -0.53662611 4.29300887 0 0 Z " fill="#87D4F0" transform="translate(395,177)"/>
<path d="M0 0 C4.01984912 6.02977369 4.25729264 12.92445235 4 20 C2.12588542 16.7242367 1.46012399 13.71507296 0.875 10 C0.70742188 8.96875 0.53984375 7.9375 0.3671875 6.875 C0 4 0 4 0 0 Z " fill="#91D4ED" transform="translate(410,157)"/>
<path d="M0 0 C0.144375 0.61875 0.28875 1.2375 0.4375 1.875 C0.93152225 4.03258322 0.93152225 4.03258322 2 6 C-1.48670834 4.8905928 -4.77484237 3.73662334 -8 2 C-8 1.34 -8 0.68 -8 0 C-4.94736336 -0.98120464 -3.05263664 -0.98120464 0 0 Z " fill="#87D4EF" transform="translate(349,89)"/>
<path d="M0 0 C1.75070517 0.11470137 3.50057536 0.24219028 5.25 0.375 C6.22453125 0.44460938 7.1990625 0.51421875 8.203125 0.5859375 C10.89633189 0.98465249 12.66963279 1.63507063 15 3 C15 3.66 15 4.32 15 5 C9.54520815 4.43179252 5.08940744 3.05362055 0 1 C0 0.67 0 0.34 0 0 Z " fill="#92D7EE" transform="translate(167,482)"/>
<path d="M0 0 C1.64528614 3.12752591 2.91702499 6.3053057 4.125 9.625 C4.47820312 10.58664062 4.83140625 11.54828125 5.1953125 12.5390625 C6 15 6 15 6 17 C5.01 17 4.02 17 3 17 C2.80083984 16.04287109 2.80083984 16.04287109 2.59765625 15.06640625 C2.42105469 14.24011719 2.24445313 13.41382813 2.0625 12.5625 C1.88847656 11.73878906 1.71445313 10.91507812 1.53515625 10.06640625 C1.19247006 8.02338796 1.19247006 8.02338796 0 7 C-0.04092937 4.66702567 -0.04241723 2.33294775 0 0 Z " fill="#94D7EB" transform="translate(96,309)"/>
<path d="M0 0 C1.39035371 4.17106112 -0.09769194 7.18206859 -1.4375 11.1875 C-1.68048828 11.93708984 -1.92347656 12.68667969 -2.17382812 13.45898438 C-2.77465056 15.30857501 -3.38629678 17.15464327 -4 19 C-5.1700097 15.08263419 -4.69584017 12.02040985 -4 8 C-3.34 8 -2.68 8 -2 8 C-1.855625 6.865625 -1.71125 5.73125 -1.5625 4.5625 C-1 1 -1 1 0 0 Z " fill="#95D6EE" transform="translate(491,312)"/>
<path d="M0 0 C3.71338778 2.47559186 3.77826732 3.76117442 4.8125 8 C5.08707031 9.0725 5.36164062 10.145 5.64453125 11.25 C5.82048828 12.61125 5.82048828 12.61125 6 14 C5.34 14.66 4.68 15.32 4 16 C3.32815382 13.89748139 2.66269032 11.79292237 2 9.6875 C1.443125 7.92986328 1.443125 7.92986328 0.875 6.13671875 C0 3 0 3 0 0 Z " fill="#94D7EE" transform="translate(12,314)"/>
<path d="M0 0 C0.66 0.33 1.32 0.66 2 1 C2.3125 3.1875 2.3125 3.1875 2 6 C-0.5 8.8125 -0.5 8.8125 -3 11 C-3.33 8.69 -3.66 6.38 -4 4 C-3.34 4 -2.68 4 -2 4 C-2 4.66 -2 5.32 -2 6 C-1.34 6 -0.68 6 0 6 C0 4.02 0 2.04 0 0 Z " fill="#7CD1EF" transform="translate(280,390)"/>
<path d="M0 0 C1.875 0.25 1.875 0.25 4 1 C5.25 3.0625 5.25 3.0625 6 5 C5.34 5.66 4.68 6.32 4 7 C3.01 6.67 2.02 6.34 1 6 C0 1.125 0 1.125 0 0 Z " fill="#61C9F2" transform="translate(117,359)"/>
<path d="M0 0 C0.66 0 1.32 0 2 0 C2.53293835 1.74635165 3.05090663 3.49727652 3.5625 5.25 C3.85253906 6.22453125 4.14257812 7.1990625 4.44140625 8.203125 C4.99249836 10.96243932 4.93789609 12.3912824 4 15 C1.90649311 11.5980513 1.82057837 8.94727588 2 5 C1.34 5 0.68 5 0 5 C0 3.35 0 1.7 0 0 Z " fill="#8DD3EC" transform="translate(21,292)"/>
<path d="M0 0 C0.33 1.32 0.66 2.64 1 4 C0.34 4 -0.32 4 -1 4 C-0.773125 4.556875 -0.54625 5.11375 -0.3125 5.6875 C0.12449065 8.92123084 -1.18801373 10.39073978 -3 13 C-3.99 12.67 -4.98 12.34 -6 12 C-4.43358249 7.69235185 -2.31663844 3.93828536 0 0 Z " fill="#8ED4F1" transform="translate(38,120)"/>
<path d="M0 0 C-1.89248819 0.67610423 -3.7891602 1.34050439 -5.6875 2 C-7.27111328 2.556875 -7.27111328 2.556875 -8.88671875 3.125 C-11.78362056 3.9391857 -14.01700623 4.17709796 -17 4 C-14.04778144 1.506711 -11.72696501 0.45873855 -7.9375 -0.25 C-7.08027344 -0.42015625 -6.22304687 -0.5903125 -5.33984375 -0.765625 C-3 -1 -3 -1 0 0 Z " fill="#9FDBEE" transform="translate(249,420)"/>
<path d="M0 0 C0.33 0.66 0.66 1.32 1 2 C-0.21484375 4.8203125 -0.21484375 4.8203125 -1.9375 8.125 C-2.50339844 9.22070312 -3.06929688 10.31640625 -3.65234375 11.4453125 C-4.09707031 12.28835938 -4.54179687 13.13140625 -5 14 C-5.97608217 11.07175348 -6.08226668 9.04386724 -6 6 C-5.01 6.33 -4.02 6.66 -3 7 C-2.87625 6.030625 -2.7525 5.06125 -2.625 4.0625 C-2.41875 3.051875 -2.2125 2.04125 -2 1 C-1.34 0.67 -0.68 0.34 0 0 Z " fill="#90D5EE" transform="translate(479,347)"/>
<path d="M0 0 C0.66 1.32 1.32 2.64 2 4 C1.34 4 0.68 4 0 4 C-0.33 4.99 -0.66 5.98 -1 7 C-2.65 6.67 -4.3 6.34 -6 6 C-6 5.34 -6 4.68 -6 4 C-6.66 3.67 -7.32 3.34 -8 3 C-6.8553125 3.0309375 -6.8553125 3.0309375 -5.6875 3.0625 C-2.89814214 3.12942841 -2.89814214 3.12942841 0 2 C0 1.34 0 0.68 0 0 Z " fill="#63C9ED" transform="translate(391,122)"/>
<path d="M0 0 C0.66 0 1.32 0 2 0 C2.25 3.3125 2.25 3.3125 2 7 C0 8.9375 0 8.9375 -2 10 C-2.25 3.375 -2.25 3.375 0 0 Z " fill="#75CFE9" transform="translate(276,96)"/>
<path d="M0 0 C3.16115776 1.36983503 3.9927092 1.9890638 6 5 C5.67 5.99 5.34 6.98 5 8 C3.35 7.67 1.7 7.34 0 7 C0 4.69 0 2.38 0 0 Z " fill="#7CCDEE" transform="translate(60,383)"/>
<path d="M0 0 C0.33 0.66 0.66 1.32 1 2 C4.02934491 2.65772428 4.02934491 2.65772428 7 3 C6.01 3.33 5.02 3.66 4 4 C3.26676204 6.01508358 3.26676204 6.01508358 3 8 C2.34 8 1.68 8 1 8 C1 6.68 1 5.36 1 4 C0.34 4 -0.32 4 -1 4 C-0.67 2.68 -0.34 1.36 0 0 Z " fill="#63C9F0" transform="translate(123,365)"/>
<path d="M0 0 C0.33 0 0.66 0 1 0 C1.20674944 5.78898419 0.59162079 10.42932723 -1 16 C-1.66 16 -2.32 16 -3 16 C-2.68806536 14.27073126 -2.37542638 12.54158956 -2.0625 10.8125 C-1.88847656 9.84957031 -1.71445312 8.88664062 -1.53515625 7.89453125 C-1.0476265 5.25760028 -0.53328895 2.6280095 0 0 Z " fill="#96D7ED" transform="translate(479,296)"/>
<path d="M0 0 C0.33 0 0.66 0 1 0 C1.29344873 4.98862849 1.05887078 7.96229058 -2 12 C-2.33 12 -2.66 12 -3 12 C-3.34833144 7.12335991 -2.41685712 4.22949995 0 0 Z " fill="#83D2EB" transform="translate(84,239)"/>
<path d="M0 0 C0.66 0 1.32 0 2 0 C2.36923077 6.4 2.36923077 6.4 0.5 9.4375 C0.005 9.953125 -0.49 10.46875 -1 11 C-2.0257259 6.58937864 -2.03684712 4.07369424 0 0 Z " fill="#81D2ED" transform="translate(271,105)"/>
<path d="M0 0 C0.33 0.66 0.66 1.32 1 2 C1.66 2.33 2.32 2.66 3 3 C-0.82989106 4.80230168 -3.78121808 5.19622241 -8 5 C-5.47211993 2.20127563 -3.79588866 0.54226981 0 0 Z " fill="#7CD0EE" transform="translate(116,41)"/>
<path d="M0 0 C2.76276177 0.52268466 5.3260876 1.10869587 8 2 C8 2.66 8 3.32 8 4 C5.36 4.66 2.72 5.32 0 6 C0 4 0 2 0 0 Z " fill="#81D0ED" transform="translate(160,463)"/>
<path d="M0 0 C1.79068573 2.6860286 2.66055791 4.6626589 3.625 7.6875 C3.88539062 8.49574219 4.14578125 9.30398438 4.4140625 10.13671875 C4.60742188 10.75160156 4.80078125 11.36648438 5 12 C4.34 12 3.68 12 3 12 C2.34 11.01 1.68 10.02 1 9 C0.34 9 -0.32 9 -1 9 C-0.67 6.03 -0.34 3.06 0 0 Z " fill="#8ED4EE" transform="translate(35,334)"/>
<path d="M0 0 C0.33 0.66 0.66 1.32 1 2 C-1.88341534 6.21422242 -4.04303419 7.76075855 -9 9 C-6.21000549 5.51250686 -3.74764169 2.49842779 0 0 Z " fill="#93D6ED" transform="translate(414,415)"/>
<path d="M0 0 C6.75 0.75 6.75 0.75 9 3 C8.01 3 7.02 3 6 3 C6 3.66 6 4.32 6 5 C4.68 5 3.36 5 2 5 C1.34 3.35 0.68 1.7 0 0 Z " fill="#63CAF3" transform="translate(164,399)"/>
<path d="M0 0 C4.47238653 1.41807378 8.71146306 3.11304374 13 5 C13 5.33 13 5.66 13 6 C7.90551202 5.56826373 4.15487723 5.24599784 0 2 C0 1.34 0 0.68 0 0 Z " fill="#8ED7EF" transform="translate(163,395)"/>
<path d="M0 0 C-0.33 0.66 -0.66 1.32 -1 2 C-3.72265625 2.8515625 -3.72265625 2.8515625 -7.0625 3.625 C-8.16722656 3.88539063 -9.27195313 4.14578125 -10.41015625 4.4140625 C-11.26480469 4.60742188 -12.11945313 4.80078125 -13 5 C-12.67 4.01 -12.34 3.02 -12 2 C-7.9083139 0.19204568 -4.44280672 -0.21156222 0 0 Z " fill="#95D9ED" transform="translate(146,222)"/>
<path d="M0 0 C1.42944945 2.35438733 2.08661261 3.48032433 1.625 6.25 C1.41875 6.8275 1.2125 7.405 1 8 C-0.32 8 -1.64 8 -3 8 C-2.45276317 4.62537285 -1.9451 2.91765 0 0 Z " fill="#7FCFEE" transform="translate(44,111)"/>
<path d="M0 0 C0.33 1.65 0.66 3.3 1 5 C-4.75 3.25 -4.75 3.25 -7 1 C-3.375 -1.125 -3.375 -1.125 0 0 Z " fill="#89D6F0" transform="translate(142,467)"/>
<path d="M0 0 C1.32 0 2.64 0 4 0 C2.60667426 3.36720387 1.0210714 4.9859524 -2 7 C-2.125 4.625 -2.125 4.625 -2 2 C-1.34 1.34 -0.68 0.68 0 0 Z " fill="#84D1EC" transform="translate(435,411)"/>
<path d="M0 0 C0.66 0 1.32 0 2 0 C1.03644647 9.41002278 1.03644647 9.41002278 0 14 C-0.33 14 -0.66 14 -1 14 C-1.027193 12.41676312 -1.04648306 10.83338938 -1.0625 9.25 C-1.07410156 8.36828125 -1.08570313 7.4865625 -1.09765625 6.578125 C-1.00826198 4.2181162 -0.66912821 2.25501476 0 0 Z " fill="#94D6EC" transform="translate(305,104)"/>
<path d="M0 0 C4.78504172 2.48454089 7.86077669 4.47951843 11 9 C10.01 9 9.02 9 8 9 C7.34 8.01 6.68 7.02 6 6 C3.94996045 4.80767387 3.94996045 4.80767387 2 4 C2 3.34 2 2.68 2 2 C1.34 2 0.68 2 0 2 C0 1.34 0 0.68 0 0 Z " fill="#98D6EB" transform="translate(400,49)"/>
<path d="M0 0 C3.3 0.99 6.6 1.98 10 3 C7 5 7 5 4 5 C4 5.66 4 6.32 4 7 C3.34 7 2.68 7 2 7 C2 5.68 2 4.36 2 3 C1.34 2.01 0.68 1.02 0 0 Z " fill="#8CD5EE" transform="translate(335,14)"/>
<path d="M0 0 C-0.33 0.99 -0.66 1.98 -1 3 C-4.63 3 -8.26 3 -12 3 C-7.42164847 0.71082423 -5.08462738 0 0 0 Z " fill="#8FD3EB" transform="translate(311,474)"/>
<path d="M0 0 C2.70269923 2.70269923 3.70570258 5.4252738 5 9 C4.6875 11.4375 4.6875 11.4375 4 13 C1.68917959 8.54341778 0 5.09639729 0 0 Z " fill="#93D6EC" transform="translate(478,146)"/>
<path d="M0 0 C0.66 0 1.32 0 2 0 C3.44207941 2.88415883 3.09394887 5.41721528 3.0625 8.625 C3.05347656 9.81351563 3.04445313 11.00203125 3.03515625 12.2265625 C3.02355469 13.14179688 3.01195312 14.05703125 3 15 C2.67 15 2.34 15 2 15 C1.34 10.05 0.68 5.1 0 0 Z " fill="#9DDAF0" transform="translate(393,147)"/>
<path d="M0 0 C3.375 0.625 3.375 0.625 7 2 C8.4375 5.125 8.4375 5.125 9 8 C4.7257442 6.4169423 2.73468206 3.49431596 0 0 Z " fill="#9CDCEE" transform="translate(406,74)"/>
<path d="M0 0 C1.65 0.33 3.3 0.66 5 1 C2.61042731 4.24299151 0.7952131 6.50902342 -3 8 C-3 6.68 -3 5.36 -3 4 C-1.68 4 -0.36 4 1 4 C0.67 2.68 0.34 1.36 0 0 Z " fill="#8AD3ED" transform="translate(100,66)"/>
<path d="M0 0 C4.43458973 1.3937282 6.87378374 3.60582235 10 7 C7.8125 7.3125 7.8125 7.3125 5 7 C2.1875 4.625 2.1875 4.625 0 2 C0 1.34 0 0.68 0 0 Z " fill="#93D7EE" transform="translate(390,42)"/>
<path d="M0 0 C0.66 0.99 1.32 1.98 2 3 C0.35 5.64 -1.3 8.28 -3 11 C-3.33 9.68 -3.66 8.36 -4 7 C-3.34 7 -2.68 7 -2 7 C-2 5.68 -2 4.36 -2 3 C-1.34 3 -0.68 3 0 3 C0 2.01 0 1.02 0 0 Z " fill="#8AD2EC" transform="translate(463,374)"/>
<path d="M0 0 C0.99 0 1.98 0 3 0 C4.6875 2 4.6875 2 6 4 C5.01 4 4.02 4 3 4 C2.67 4.66 2.34 5.32 2 6 C1.01 5.34 0.02 4.68 -1 4 C-0.67 2.68 -0.34 1.36 0 0 Z " fill="#64C9EF" transform="translate(113,354)"/>
<path d="M0 0 C3.7952131 1.49097658 5.61042731 3.75700849 8 7 C7.67 7.66 7.34 8.32 7 9 C3.26115668 6.34345343 1.35021826 4.41889613 0 0 Z " fill="#94D6EE" transform="translate(442,90)"/>
<path d="M0 0 C-1.12073862 0.83905565 -2.24674547 1.67107831 -3.375 2.5 C-4.00148438 2.9640625 -4.62796875 3.428125 -5.2734375 3.90625 C-7 5 -7 5 -9 5 C-8.75 3.125 -8.75 3.125 -8 1 C-4.99629127 -1.17509943 -3.43900285 -1.00214129 0 0 Z " fill="#8FD3EB" transform="translate(401,448)"/>
<path d="M0 0 C2.375 0.25 2.375 0.25 5 1 C6.125 3 6.125 3 7 5 C7.99 5.33 8.98 5.66 10 6 C9.01 6.495 9.01 6.495 8 7 C6.66382648 6.02471263 5.3311249 5.04466681 4 4.0625 C3.2575 3.51722656 2.515 2.97195313 1.75 2.41015625 C1.1725 1.94480469 0.595 1.47945313 0 1 C0 0.67 0 0.34 0 0 Z " fill="#97D5EF" transform="translate(97,443)"/>
<path d="M0 0 C0.66 0 1.32 0 2 0 C0.50902342 3.7952131 -1.75700849 5.61042731 -5 8 C-5.33 7.01 -5.66 6.02 -6 5 C-5.01 5 -4.02 5 -3 5 C-2.5359375 4.0409375 -2.5359375 4.0409375 -2.0625 3.0625 C-1 1 -1 1 0 0 Z " fill="#98D9EA" transform="translate(275,400)"/>
<path d="M0 0 C0.33 0 0.66 0 1 0 C1.25 7.625 1.25 7.625 -1 11 C-1.66 11 -2.32 11 -3 11 C-2.01 7.37 -1.02 3.74 0 0 Z " fill="#8FD6F0" transform="translate(472,322)"/>
<path d="M0 0 C2.31 0 4.62 0 7 0 C4.49751135 1.66832577 2.58850813 2.62381674 -0.1875 3.625 C-1.26064453 4.01558594 -1.26064453 4.01558594 -2.35546875 4.4140625 C-2.89816406 4.60742188 -3.44085938 4.80078125 -4 5 C-4 4.01 -4 3.02 -4 2 C-2.68 2 -1.36 2 0 2 C0 1.34 0 0.68 0 0 Z " fill="#91D5EF" transform="translate(125,227)"/>
<path d="M0 0 C0.66 0 1.32 0 2 0 C2.38909985 1.45463481 2.76088029 2.91391207 3.125 4.375 C3.33382813 5.18710938 3.54265625 5.99921875 3.7578125 6.8359375 C3.83773438 7.55007812 3.91765625 8.26421875 4 9 C3.34 9.66 2.68 10.32 2 11 C1.34 7.37 0.68 3.74 0 0 Z " fill="#95D9EE" transform="translate(476,186)"/>
<path d="M0 0 C0.33 0 0.66 0 1 0 C2.75747614 4.50353262 3.19294408 8.17639811 3 13 C0.78289234 9.67433852 -0.09946473 6.87922884 -1 3 C-0.67 2.01 -0.34 1.02 0 0 Z " fill="#91D8EE" transform="translate(468,157)"/>
<path d="M0 0 C0.33 0.66 0.66 1.32 1 2 C-0.1875 5.0625 -0.1875 5.0625 -2 8 C-4.1875 8.875 -4.1875 8.875 -6 9 C-4.47291037 5.56404834 -2.40072955 2.88087546 0 0 Z " fill="#91D7EC" transform="translate(58,92)"/>
<path d="M0 0 C-2.52788007 2.79872437 -4.20411134 4.45773019 -8 5 C-7.625 3.0625 -7.625 3.0625 -7 1 C-4.53721199 -0.231394 -2.7204945 -0.07159196 0 0 Z " fill="#8BD4EC" transform="translate(129,50)"/>
<path d="M0 0 C2.97 0.33 5.94 0.66 9 1 C8.67 2.32 8.34 3.64 8 5 C4.35446828 3.7191375 2.83328987 2.83328987 0 0 Z " fill="#8DD6EE" transform="translate(364,44)"/>
<path d="M0 0 C0 0.66 0 1.32 0 2 C-0.99 2 -1.98 2 -3 2 C-3 2.66 -3 3.32 -3 4 C-3.66 4 -4.32 4 -5 4 C-5.33 4.99 -5.66 5.98 -6 7 C-7.32 6.34 -8.64 5.68 -10 5 C-8.71186658 4.16121545 -7.41936744 3.32913217 -6.125 2.5 C-5.40570313 2.0359375 -4.68640625 1.571875 -3.9453125 1.09375 C-2 0 -2 0 0 0 Z " fill="#91D6EF" transform="translate(127,34)"/>
<path d="M0 0 C3.77545388 1.09068668 6.47043472 1.9083091 9 5 C5.93606987 5.25532751 4.36766788 5.21861333 1.6875 3.625 C1.130625 3.08875 0.57375 2.5525 0 2 C0 1.34 0 0.68 0 0 Z " fill="#93D6EE" transform="translate(136,451)"/>
<path d="M0 0 C1.41687119 4.25061356 0.19320039 6.71851625 -1 11 C-1.66 11 -2.32 11 -3 11 C-3.39253254 6.55129785 -2.15305957 3.85756507 0 0 Z " fill="#8ED3EB" transform="translate(94,261)"/>
<path d="M0 0 C2.77842595 2.77842595 3.94471208 4.78366581 4.125 8.75 C4.08375 9.4925 4.0425 10.235 4 11 C1 9 1 9 0.48828125 6.8359375 C0.43027344 6.02382812 0.37226563 5.21171875 0.3125 4.375 C0.24675781 3.55773437 0.18101562 2.74046875 0.11328125 1.8984375 C0.07589844 1.27195313 0.03851563 0.64546875 0 0 Z " fill="#8BD3EC" transform="translate(479,198)"/>
<path d="M0 0 C0.99 0.33 1.98 0.66 3 1 C1.8141763 4.37503669 0.72426311 6.64722731 -2 9 C-2.33 7.68 -2.66 6.36 -3 5 C-2.01 5 -1.02 5 0 5 C0 3.35 0 1.7 0 0 Z " fill="#8BD6ED" transform="translate(60,110)"/>
<path d="M0 0 C0.99 0.33 1.98 0.66 3 1 C2.34 1 1.68 1 1 1 C0.731875 1.61875 0.46375 2.2375 0.1875 2.875 C-1 5 -1 5 -4 7 C-3.6875 4.625 -3.6875 4.625 -3 2 C-2.01 1.34 -1.02 0.68 0 0 Z " fill="#9ADBEF" transform="translate(86,82)"/>
<path d="M0 0 C3.37503669 1.1858237 5.64722731 2.27573689 8 5 C7.01 5.33 6.02 5.66 5 6 C4.34 5.67 3.68 5.34 3 5 C3 4.34 3 3.68 3 3 C2.01 2.67 1.02 2.34 0 2 C0 1.34 0 0.68 0 0 Z " fill="#8FD7F1" transform="translate(382,37)"/>
<path d="M0 0 C2.875 0.3125 2.875 0.3125 6 1 C6.66 1.99 7.32 2.98 8 4 C5.69 3.67 3.38 3.34 1 3 C0.67 2.01 0.34 1.02 0 0 Z " fill="#7DCDED" transform="translate(158,477)"/>
<path d="M0 0 C1.32 0.33 2.64 0.66 4 1 C4 1.66 4 2.32 4 3 C4.66 3 5.32 3 6 3 C6.33 4.65 6.66 6.3 7 8 C4.35247996 5.42215154 2.05567935 3.08351902 0 0 Z " fill="#9CD8EB" transform="translate(62,409)"/>
<path d="M0 0 C2.25245881 2.68841859 3.88213958 4.64641875 5 8 C4.01 8.495 4.01 8.495 3 9 C3 8.34 3 7.68 3 7 C2.34 7 1.68 7 1 7 C0.67 4.69 0.34 2.38 0 0 Z " fill="#8CD6EC" transform="translate(51,367)"/>
<path d="M0 0 C0.33 1.32 0.66 2.64 1 4 C-0.8125 5.5625 -0.8125 5.5625 -3 7 C-3.99 6.67 -4.98 6.34 -6 6 C-4.02 4.02 -2.04 2.04 0 0 Z " fill="#87D0EE" transform="translate(79,69)"/>
<path d="M0 0 C0.66 0.33 1.32 0.66 2 1 C1.375 2.875 1.375 2.875 0 5 C-3.125 6.25 -3.125 6.25 -6 7 C-4.02 4.69 -2.04 2.38 0 0 Z " fill="#96DAED" transform="translate(86,62)"/>
<path d="M0 0 C1.65 0.33 3.3 0.66 5 1 C2.3144406 3.6855594 -0.37621328 4.06049974 -4 5 C-4.33 4.34 -4.66 3.68 -5 3 C-3.68 3 -2.36 3 -1 3 C-0.67 2.01 -0.34 1.02 0 0 Z " fill="#90D4F0" transform="translate(353,472)"/>
<path d="M0 0 C2 3.75 2 3.75 2 6 C-1.16115776 4.63016497 -1.9927092 4.0109362 -4 1 C-2.68 0.67 -1.36 0.34 0 0 Z " fill="#87D4EF" transform="translate(93,435)"/>
<path d="M0 0 C1.32 0.99 2.64 1.98 4 3 C2.68 3.99 1.36 4.98 0 6 C0 5.34 0 4.68 0 4 C-0.66 4 -1.32 4 -2 4 C-1.34 2.68 -0.68 1.36 0 0 Z " fill="#7BD0F0" transform="translate(419,426)"/>
<path d="M0 0 C2.31 1.98 4.62 3.96 7 6 C6.34 6.66 5.68 7.32 5 8 C4.731875 7.360625 4.46375 6.72125 4.1875 6.0625 C3.11332248 3.66868314 3.11332248 3.66868314 0 3 C0 2.01 0 1.02 0 0 Z " fill="#9DDAEE" transform="translate(88,414)"/>
<path d="M0 0 C6.0546875 -0.1953125 6.0546875 -0.1953125 8 0 C8.66 0.66 9.32 1.32 10 2 C9.67 2.99 9.34 3.98 9 5 C8.443125 4.525625 7.88625 4.05125 7.3125 3.5625 C4.81653926 1.87604004 2.9553763 1.41046893 0 1 C0 0.67 0 0.34 0 0 Z " fill="#A1DDEE" transform="translate(259,221)"/>
<path d="M0 0 C1.32 0.33 2.64 0.66 4 1 C3.67 3.64 3.34 6.28 3 9 C0.87491756 5.81237635 0.4979837 3.73487777 0 0 Z " fill="#91D6EF" transform="translate(473,176)"/>
<path d="M0 0 C0.33 0.99 0.66 1.98 1 3 C1.66 3 2.32 3 3 3 C3.33 4.32 3.66 5.64 4 7 C2.68 6.67 1.36 6.34 0 6 C-0.38218767 4.34385343 -0.71395102 2.67542976 -1 1 C-0.67 0.67 -0.34 0.34 0 0 Z " fill="#7DCEEF" transform="translate(472,169)"/>
<path d="M0 0 C0.99 0.33 1.98 0.66 3 1 C3 1.66 3 2.32 3 3 C3.66 3.33 4.32 3.66 5 4 C4.67 4.66 4.34 5.32 4 6 C2.68 5.34 1.36 4.68 0 4 C0 2.68 0 1.36 0 0 Z " fill="#62C9F7" transform="translate(446,99)"/>
<path d="M0 0 C0.33 1.32 0.66 2.64 1 4 C-0.98 4.99 -2.96 5.98 -5 7 C-3.70700306 4.11562221 -2.34058637 2.12780579 0 0 Z " fill="#90D8ED" transform="translate(64,85)"/>
<path d="M0 0 C5.75 1.75 5.75 1.75 8 4 C4.25 5.125 4.25 5.125 2 4 C2 3.34 2 2.68 2 2 C1.34 2 0.68 2 0 2 C0 1.34 0 0.68 0 0 Z " fill="#96DAF2" transform="translate(343,79)"/>
<path d="M0 0 C3.77545388 1.09068668 6.47043472 1.9083091 9 5 C7.68 5 6.36 5 5 5 C5 4.34 5 3.68 5 3 C3.35 2.67 1.7 2.34 0 2 C0 1.34 0 0.68 0 0 Z " fill="#9FDBF1" transform="translate(359,24)"/>
<path d="M0 0 C0 0.99 0 1.98 0 3 C-4.75 4.125 -4.75 4.125 -7 3 C-4.69 2.01 -2.38 1.02 0 0 Z " fill="#85D3EB" transform="translate(252,398)"/>
<path d="M0 0 C-0.33 1.65 -0.66 3.3 -1 5 C-1.99 5 -2.98 5 -4 5 C-4.33 3.68 -4.66 2.36 -5 1 C-2 0 -2 0 0 0 Z " fill="#7BCEEC" transform="translate(100,330)"/>
<path d="M0 0 C0.66 0.99 1.32 1.98 2 3 C1.25 5.625 1.25 5.625 0 8 C-0.99 8.495 -0.99 8.495 -2 9 C-1.125 1.125 -1.125 1.125 0 0 Z " fill="#88D2ED" transform="translate(408,191)"/>
<path d="M0 0 C2.88437779 1.29299694 4.87219421 2.65941363 7 5 C6.67 5.99 6.34 6.98 6 8 C3.33264727 5.51047079 1.44253657 3.36591866 0 0 Z " fill="#94D9EE" transform="translate(377,118)"/>
<path d="M0 0 C1.32 0 2.64 0 4 0 C4.33 0.99 4.66 1.98 5 3 C5.66 3.33 6.32 3.66 7 4 C6.67 4.66 6.34 5.32 6 6 C3.96166576 4.7260411 1.96147874 3.38938077 0 2 C0 1.34 0 0.68 0 0 Z " fill="#90D6EE" transform="translate(353,95)"/>
<path d="M0 0 C3.37503669 1.1858237 5.64722731 2.27573689 8 5 C5.125 4.75 5.125 4.75 2 4 C0.625 1.9375 0.625 1.9375 0 0 Z " fill="#94D7EC" transform="translate(351,83)"/>
<path d="M0 0 C3.16115776 1.36983503 3.9927092 1.9890638 6 5 C5.01 5.495 5.01 5.495 4 6 C4 5.34 4 4.68 4 4 C2.68 4.33 1.36 4.66 0 5 C0 3.35 0 1.7 0 0 Z " fill="#84D1EF" transform="translate(434,81)"/>
<path d="M0 0 C0.66 0.33 1.32 0.66 2 1 C1.01 2.485 1.01 2.485 0 4 C0 4.66 0 5.32 0 6 C-1.65 6.33 -3.3 6.66 -5 7 C-1.125 1.125 -1.125 1.125 0 0 Z " fill="#84D4EE" transform="translate(98,52)"/>
</svg>
