<?xml version="1.0" standalone="no"?>
<!DOCTYPE svg PUBLIC "-//W3C//DTD SVG 20010904//EN"
 "http://www.w3.org/TR/2001/REC-SVG-20010904/DTD/svg10.dtd">
<svg version="1.0" xmlns="http://www.w3.org/2000/svg"
 width="400.000000pt" height="400.000000pt" viewBox="0 0 400.000000 400.000000"
 preserveAspectRatio="xMidYMid meet">

<g transform="translate(0.000000,400.000000) scale(0.100000,-0.100000)"
fill="#000000" stroke="none">
<path d="M1905 2947 c-38 -19 -110 -53 -160 -77 -49 -23 -98 -49 -107 -57 -26
-23 -23 -75 5 -100 33 -32 322 -163 358 -163 28 0 210 78 321 137 59 32 78 71
54 108 -20 30 -312 175 -366 181 -25 3 -55 -5 -105 -29z"/>
<path d="M1327 2568 c-13 -13 -51 -74 -86 -136 -57 -104 -62 -116 -51 -142 16
-39 227 -180 729 -487 87 -53 62 -62 426 162 124 77 323 209 403 267 82 61 83
70 10 201 -34 62 -73 123 -86 136 -32 32 -73 25 -182 -29 -246 -121 -466 -220
-492 -220 -26 0 -214 85 -496 224 -104 52 -142 57 -175 24z"/>
<path d="M1493 1800 c-32 -13 -123 -155 -123 -192 0 -34 7 -42 309 -329 258
-246 274 -259 321 -259 48 0 52 3 305 243 294 279 325 312 325 345 0 42 -90
176 -130 192 -40 17 -48 13 -278 -131 -110 -69 -190 -113 -212 -116 -30 -4
-53 7 -170 79 -294 181 -304 186 -347 168z"/>
</g>
</svg>
